{"glyphs":{"0":{"ha":1038,"x_min":63,"x_max":971,"o":"m 517 -21 l 517 -21 q 329 21 415 -21 q 181 140 243 63 l 181 140 q 92 306 122 213 q 63 507 63 400 l 63 507 q 96 720 63 624 q 189 886 129 817 q 333 994 249 956 q 517 1033 417 1033 l 517 1033 q 699 994 615 1033 q 842 884 782 954 q 937 717 903 814 q 971 507 971 621 l 971 507 q 940 307 971 401 q 850 140 908 213 l 850 140 q 701 20 788 61 q 517 -21 615 -21 z m 517 851 l 517 851 q 426 831 472 851 q 344 769 381 811 q 283 663 307 728 q 260 507 260 597 l 260 507 q 275 384 260 446 q 322 273 290 322 q 401 192 353 224 q 517 161 450 161 l 517 161 q 608 183 563 161 q 691 249 654 206 q 750 358 728 293 q 772 507 772 422 l 772 507 q 753 647 772 576 q 700 763 735 718 l 700 763 q 517 851 631 851 z "},"1":{"ha":617,"x_min":31,"x_max":507,"o":"m 383 1018 l 507 1018 l 507 0 l 313 0 l 313 683 l 164 542 l 31 683 l 383 1018 z "},"2":{"ha":892,"x_min":82,"x_max":803,"o":"m 353 172 l 803 172 l 803 0 l 100 0 l 100 193 q 172 253 126 215 q 268 335 217 292 q 371 421 319 378 q 461 496 422 464 l 461 496 q 534 563 507 533 q 575 619 561 593 q 592 669 589 646 q 596 717 596 693 l 596 717 q 582 785 596 758 q 545 829 568 813 q 494 853 522 846 q 438 860 465 860 l 438 860 q 359 837 390 860 q 308 785 328 814 q 280 729 289 756 q 269 697 271 703 l 269 697 l 269 699 l 82 747 q 117 834 92 785 q 186 928 143 883 q 292 1003 229 972 q 438 1033 354 1033 l 438 1033 q 594 1005 528 1033 q 705 931 661 976 q 769 830 749 886 q 790 717 790 774 l 790 717 q 776 610 790 658 q 733 518 761 561 q 665 435 704 475 q 575 354 625 394 l 575 354 q 530 317 556 339 q 474 270 504 294 q 413 220 444 246 q 353 172 382 194 l 353 172 z "},"3":{"ha":833,"x_min":57,"x_max":764,"o":"m 599 511 l 599 511 q 656 485 626 501 q 709 441 685 468 q 749 373 733 414 q 764 275 764 332 l 764 275 q 762 241 764 261 q 753 197 760 221 q 735 149 747 174 q 704 99 724 124 l 704 99 q 638 40 675 63 q 562 3 601 17 q 483 -15 522 -10 q 410 -19 444 -19 l 410 -19 q 258 10 321 -19 q 155 84 196 40 q 90 176 114 128 q 57 261 67 225 l 57 261 l 243 315 q 250 283 244 310 q 273 228 256 257 q 322 175 290 199 q 410 151 354 151 l 410 151 q 530 188 490 151 q 569 275 569 225 l 569 275 q 553 360 569 328 q 504 410 536 392 q 424 434 472 428 q 314 443 376 440 l 314 443 l 314 593 q 422 601 374 596 q 502 621 469 606 q 552 665 535 636 q 569 744 569 694 l 569 744 q 530 831 569 794 q 410 867 490 867 l 410 867 q 322 843 354 867 q 273 790 290 819 q 250 735 256 761 q 243 704 244 710 l 243 704 l 57 758 q 90 843 67 794 q 155 935 114 892 q 258 1009 196 979 q 410 1039 321 1039 l 410 1039 q 575 1012 507 1039 q 685 942 643 985 q 745 848 726 900 q 764 744 764 796 l 764 744 q 749 649 764 688 q 710 584 735 611 q 657 540 686 557 q 599 511 628 524 z "},"4":{"ha":933,"x_min":74,"x_max":879,"o":"m 756 397 l 879 397 l 879 225 l 756 225 l 756 0 l 561 0 l 561 225 l 74 225 l 74 392 l 608 1018 l 756 1018 l 756 397 z m 561 397 l 561 690 l 322 397 l 561 397 z "},"5":{"ha":856,"x_min":51,"x_max":785,"o":"m 435 679 l 435 679 q 692 585 600 679 q 785 324 785 492 l 785 324 q 756 184 785 249 q 672 71 728 119 l 672 71 q 556 3 622 26 q 417 -19 490 -19 l 417 -19 q 288 -5 343 -19 q 190 34 233 10 q 114 88 147 58 q 51 149 81 118 l 51 149 l 151 288 q 169 267 151 288 q 222 222 188 246 q 306 177 257 197 q 417 156 354 157 l 417 156 q 480 167 449 156 q 536 201 511 179 q 576 253 561 222 q 592 324 592 285 l 592 324 q 549 466 592 411 q 433 524 506 521 l 433 524 q 357 518 390 525 q 298 498 324 511 q 254 469 272 485 q 222 439 236 453 l 222 439 l 75 518 l 168 1018 l 721 1018 l 721 844 l 325 844 l 290 631 q 360 667 322 656 q 435 679 399 679 z "},"6":{"ha":901,"x_min":61,"x_max":826,"o":"m 475 692 l 475 692 q 619 671 554 696 q 729 599 683 646 q 800 485 775 551 q 826 338 825 418 l 826 338 q 818 250 826 289 q 797 181 810 211 q 767 127 783 150 q 733 88 750 104 l 733 88 q 659 32 699 53 q 580 -1 619 11 q 505 -16 540 -12 q 443 -19 469 -19 l 443 -19 q 324 -2 381 -19 q 220 47 267 15 q 140 122 174 78 q 89 218 106 165 l 89 218 q 65 385 61 306 q 107 553 69 465 l 107 553 q 153 633 119 579 q 233 753 188 688 q 328 890 278 819 q 421 1018 378 960 l 421 1018 l 661 1018 q 601 937 633 981 q 538 848 569 893 q 474 758 506 803 q 414 675 442 714 l 414 675 q 440 685 425 681 q 475 692 456 690 z m 449 154 l 449 154 q 522 169 488 154 q 581 208 556 183 q 622 265 607 232 q 636 336 636 299 l 636 336 q 622 407 636 374 q 581 465 607 440 q 522 505 556 490 q 449 519 488 519 l 449 519 q 376 505 410 519 q 317 465 342 490 q 277 407 292 440 q 263 336 263 374 l 263 336 q 277 265 263 299 q 317 208 292 232 q 376 169 342 183 q 449 154 410 154 z "},"7":{"ha":835,"x_min":58,"x_max":785,"o":"m 58 1018 l 785 1018 l 785 826 l 321 0 l 99 0 l 585 844 l 58 844 l 58 1018 z "},"8":{"ha":863,"x_min":54,"x_max":803,"o":"m 629 538 l 629 538 q 694 508 663 529 q 750 454 726 486 q 788 383 774 422 q 803 303 803 344 l 803 303 q 774 160 803 221 q 693 59 744 99 q 574 0 642 19 q 428 -19 506 -19 l 428 -19 q 283 0 350 -19 q 164 59 215 19 q 83 160 113 99 q 54 303 54 221 l 54 303 q 69 383 54 344 q 109 453 85 422 q 165 507 133 485 q 228 538 196 529 l 228 538 q 182 567 206 547 q 138 616 158 588 q 106 678 118 644 q 93 746 93 711 l 93 746 q 119 860 93 808 q 191 951 146 913 q 297 1010 236 989 q 428 1032 358 1032 l 428 1032 q 558 1010 497 1032 q 665 951 619 989 q 738 860 711 913 q 764 746 764 808 l 764 746 q 753 676 764 710 q 725 614 743 642 q 683 566 707 586 q 629 538 658 546 z m 288 725 l 288 725 q 299 672 288 694 q 329 635 310 650 q 374 612 349 619 q 428 604 400 604 l 428 604 q 527 635 486 604 q 568 725 568 665 l 568 725 q 557 788 568 763 q 526 828 546 813 q 482 851 507 844 q 428 858 457 858 l 428 858 q 374 851 400 858 q 329 827 349 843 q 299 786 310 811 q 288 725 288 761 z m 428 154 l 428 154 q 497 161 464 154 q 553 185 529 168 q 592 230 578 201 q 607 303 607 258 l 607 303 q 592 365 607 338 q 553 413 578 393 q 497 444 529 433 q 428 454 464 454 l 428 454 q 360 444 392 454 q 303 415 328 435 q 265 367 279 396 q 250 303 250 339 l 250 303 q 265 230 250 258 q 303 185 279 201 q 360 161 328 168 q 428 154 392 154 z "},"9":{"ha":913,"x_min":81,"x_max":846,"o":"m 432 326 l 432 326 q 288 351 353 322 q 177 429 224 379 q 106 544 131 479 q 81 681 81 610 l 81 681 q 89 768 81 729 q 111 838 97 807 q 141 891 125 868 q 174 931 157 914 l 174 931 q 248 986 208 965 q 327 1019 288 1007 q 402 1034 367 1031 q 464 1038 438 1038 l 464 1038 q 583 1020 526 1038 q 687 972 640 1003 q 767 897 733 940 q 818 800 801 853 l 818 800 q 842 633 846 713 q 800 465 838 553 l 800 465 q 753 385 788 439 q 674 265 719 331 q 579 128 629 199 q 486 0 529 58 l 486 0 l 246 0 q 306 81 274 38 q 369 170 338 125 q 433 260 401 215 q 493 343 465 304 l 493 343 q 468 333 483 339 q 432 326 453 328 z m 458 867 l 458 867 q 385 856 419 867 q 326 822 351 844 q 287 765 301 800 q 272 682 272 729 l 272 682 q 287 611 272 644 q 326 553 301 578 q 385 513 351 528 q 458 499 419 499 l 458 499 q 531 513 497 499 q 591 553 565 528 q 631 611 617 578 q 646 682 646 644 l 646 682 q 631 765 646 731 q 591 823 617 800 q 531 856 565 846 q 458 867 497 867 z "},"\u0000":{"ha":0,"x_min":null,"x_max":null,"o":""},"\r":{"ha":475,"x_min":null,"x_max":null,"o":""}," ":{"ha":475,"x_min":null,"x_max":null,"o":""},"E":{"ha":949,"x_min":111,"x_max":858,"o":"m 858 844 l 304 844 l 304 590 l 796 590 l 796 414 l 304 414 l 304 175 l 858 175 l 858 0 l 111 0 l 111 1017 l 858 1017 l 858 844 z "},"F":{"ha":906,"x_min":111,"x_max":858,"o":"m 858 843 l 306 843 l 306 593 l 796 593 l 796 414 l 306 414 l 306 0 l 111 0 l 111 1017 l 858 1017 l 858 843 z "},"G":{"ha":1150,"x_min":56,"x_max":1097,"o":"m 511 556 l 1097 556 q 1096 501 1096 526 l 1096 501 q 1094 458 1094 479 q 1093 425 1094 436 l 1093 425 q 1041 247 1085 329 q 928 106 997 165 q 770 14 860 47 q 582 -19 681 -19 l 582 -19 q 378 22 474 -19 q 210 135 282 64 q 97 303 139 207 q 56 507 56 399 l 56 507 q 97 712 56 615 q 210 880 139 808 q 378 993 282 951 q 582 1035 474 1035 l 582 1035 q 834 971 719 1035 q 1019 800 949 907 l 1019 800 l 853 699 q 737 808 808 764 q 582 853 665 853 l 582 853 q 452 824 513 853 q 347 749 392 796 q 275 638 301 701 q 249 507 249 575 l 249 507 q 275 375 249 438 q 347 265 301 313 q 452 190 392 218 q 582 161 513 161 l 582 161 q 683 177 635 161 q 772 222 732 193 q 842 292 813 251 q 886 381 872 332 l 886 381 l 511 381 l 511 556 z "},"H":{"ha":1111,"x_min":111,"x_max":1000,"o":"m 807 1017 l 1000 1017 l 1000 0 l 807 0 l 807 404 l 304 404 l 304 0 l 111 0 l 111 1017 l 304 1017 l 304 578 l 807 578 l 807 1017 z "},"I":{"ha":472,"x_min":139,"x_max":333,"o":"m 333 1015 l 333 0 l 139 0 l 139 1015 l 333 1015 z "},"J":{"ha":846,"x_min":25,"x_max":739,"o":"m 544 1015 l 739 1015 l 739 378 q 712 215 739 289 q 635 90 685 142 q 517 9 586 38 q 363 -19 447 -19 l 363 -19 q 156 36 243 -19 q 25 190 69 92 l 25 190 l 201 269 q 224 230 210 250 q 257 194 238 210 q 302 167 276 178 q 363 157 328 157 l 363 157 q 458 181 422 157 q 513 239 493 204 q 538 311 532 274 q 544 378 544 349 l 544 378 l 544 1015 z "},"K":{"ha":1021,"x_min":111,"x_max":989,"o":"m 989 0 l 732 0 l 306 463 l 306 0 l 111 0 l 111 1017 l 306 1017 l 306 500 l 710 1015 l 949 1015 l 531 490 l 989 0 z "},"L":{"ha":854,"x_min":111,"x_max":843,"o":"m 306 172 l 843 172 l 843 0 l 111 0 l 111 1017 l 306 1017 l 306 172 z "},"M":{"ha":1247,"x_min":111,"x_max":1135,"o":"m 1122 1015 l 1135 1015 l 1135 0 l 940 0 l 940 514 l 622 132 l 306 514 l 306 0 l 111 0 l 111 1015 l 124 1015 l 622 429 l 1122 1015 z "},"N":{"ha":1106,"x_min":111,"x_max":994,"o":"m 994 0 l 974 0 l 304 604 l 304 0 l 111 0 l 111 1015 l 132 1015 l 800 401 l 800 1015 l 994 1015 l 994 0 z "},"O":{"ha":1175,"x_min":60,"x_max":1114,"o":"m 586 -19 l 586 -19 q 382 22 478 -19 q 215 135 286 64 q 101 303 143 207 q 60 508 60 399 l 60 508 q 101 713 60 617 q 215 881 143 810 q 382 994 286 953 q 586 1036 478 1036 l 586 1036 q 792 994 696 1036 q 959 881 888 953 q 1072 713 1031 810 q 1114 508 1114 617 l 1114 508 q 1072 303 1114 399 q 959 135 1031 207 q 792 22 888 64 q 586 -19 696 -19 z m 586 854 l 586 854 q 456 826 517 854 q 351 750 396 797 q 279 640 306 703 q 253 508 253 576 l 253 508 q 279 376 253 439 q 351 266 306 314 q 456 190 396 218 q 586 161 517 161 l 586 161 q 716 190 656 161 q 822 266 776 218 q 893 376 867 314 q 919 508 919 439 l 919 508 q 893 640 919 576 q 822 750 867 703 q 716 826 776 797 q 586 854 656 854 z "},"P":{"ha":942,"x_min":111,"x_max":925,"o":"m 111 1017 l 564 1017 q 705 988 639 1017 q 819 911 771 960 q 897 797 868 863 q 925 656 925 731 l 925 656 q 900 517 925 581 q 826 405 875 453 q 703 330 778 357 q 532 303 629 303 l 532 303 l 306 303 l 306 0 l 111 0 l 111 1017 z m 306 478 l 564 478 q 639 492 607 478 q 691 532 671 507 q 721 589 711 557 q 731 656 731 621 l 731 656 q 718 724 731 690 q 682 785 706 758 q 624 828 658 811 q 543 844 589 844 l 543 844 l 306 844 l 306 478 z "},"Q":{"ha":1149,"x_min":60,"x_max":1115,"o":"m 899 178 l 1115 178 l 1115 -1 l 610 -1 q 365 40 468 -1 q 193 151 261 81 q 92 315 125 221 q 60 517 60 410 l 60 517 q 101 718 60 624 q 212 883 142 813 q 376 994 282 953 q 576 1035 469 1035 l 576 1035 q 778 994 683 1035 q 942 883 872 953 q 1053 718 1013 813 q 1094 517 1094 624 l 1094 517 q 1084 422 1094 471 q 1050 328 1074 374 q 990 243 1026 282 q 899 178 953 204 l 899 178 z m 253 517 l 253 517 q 278 390 253 450 q 348 285 304 331 q 451 214 392 240 q 576 188 510 188 l 576 188 q 702 214 643 188 q 805 285 761 240 q 874 390 849 331 q 900 517 900 450 l 900 517 q 874 644 900 583 q 805 749 849 704 q 702 819 761 793 q 576 846 643 846 l 576 846 q 451 819 510 846 q 348 749 392 793 q 278 644 304 704 q 253 517 253 583 z "},"R":{"ha":1000,"x_min":111,"x_max":965,"o":"m 304 324 l 304 0 l 111 0 l 111 1017 l 572 1017 q 715 991 650 1017 q 825 919 779 965 q 897 808 871 872 q 922 667 922 743 l 922 667 q 865 465 922 551 q 711 342 807 379 l 711 342 q 965 0 840 172 l 965 0 l 733 0 q 614 160 672 79 q 497 324 556 240 l 497 324 l 304 324 z m 304 844 l 304 496 l 572 496 q 627 506 599 496 q 678 538 656 517 q 715 592 700 560 q 729 667 729 624 l 729 667 q 724 719 729 689 q 701 778 718 750 q 654 825 685 806 q 572 844 624 844 l 572 844 l 304 844 z "},"S":{"ha":944,"x_min":71,"x_max":893,"o":"m 71 133 l 71 133 l 176 289 q 334 198 253 236 q 504 160 415 160 l 504 160 q 588 172 551 160 q 649 202 624 183 q 686 245 674 221 q 699 293 699 269 l 699 293 q 680 345 699 324 q 630 381 661 367 q 556 404 599 394 q 468 422 514 414 l 468 422 q 397 435 438 428 q 314 456 357 443 q 229 491 271 469 q 154 545 188 513 q 101 623 121 578 q 81 729 81 668 l 81 729 q 117 877 81 818 q 209 970 153 936 q 334 1018 265 1004 q 467 1032 403 1032 l 467 1032 q 581 1024 531 1032 q 674 999 631 1015 q 758 959 717 983 q 846 901 799 935 l 846 901 l 738 749 q 599 825 665 799 q 458 851 532 851 l 458 851 q 401 845 433 851 q 341 825 369 839 q 294 790 313 811 q 275 738 275 768 l 275 738 q 297 686 275 707 q 354 651 319 665 q 431 628 389 638 q 511 608 472 618 l 511 608 q 580 594 540 601 q 662 575 619 588 q 746 542 704 563 q 820 488 788 521 q 873 408 853 456 q 893 292 893 360 l 893 292 q 865 154 893 213 q 786 58 838 96 q 664 0 735 19 q 507 -19 593 -19 l 507 -19 q 367 -8 428 -19 q 257 24 307 4 q 163 72 207 44 q 71 133 118 100 z "},"T":{"ha":864,"x_min":65,"x_max":842,"o":"m 842 1017 l 842 844 l 551 844 l 551 0 l 357 0 l 357 844 l 65 844 l 65 1017 l 842 1017 z "},"U":{"ha":1094,"x_min":111,"x_max":983,"o":"m 547 -18 l 547 -18 q 368 13 449 -18 q 231 99 288 43 q 142 233 174 154 q 111 410 111 313 l 111 410 l 111 1015 l 306 1015 l 306 410 q 331 283 306 333 q 392 204 356 233 q 472 164 429 175 q 547 153 514 153 l 547 153 q 623 164 581 153 q 702 204 665 175 q 764 283 739 233 q 789 410 789 333 l 789 410 l 789 1015 l 983 1015 l 983 410 q 953 233 983 313 q 865 99 922 154 q 728 13 808 43 q 547 -18 647 -18 z "},"V":{"ha":1001,"x_min":18,"x_max":994,"o":"m 779 1015 l 994 1015 l 511 0 l 500 0 l 18 1015 l 232 1015 l 506 426 l 779 1015 z "},"W":{"ha":1376,"x_min":18,"x_max":1363,"o":"m 1156 1015 l 1363 1015 l 983 0 l 964 0 l 689 592 l 411 -1 l 393 -1 l 18 1015 l 225 1015 l 424 458 l 682 1015 l 694 1015 l 953 457 l 1156 1015 z "},"X":{"ha":1047,"x_min":25,"x_max":1038,"o":"m 33 0 l 411 503 l 25 1015 l 268 1015 l 532 650 l 796 1015 l 1038 1015 l 653 503 l 1031 0 l 788 0 l 532 354 l 276 0 l 33 0 z "},"Y":{"ha":985,"x_min":11,"x_max":978,"o":"m 751 1015 l 978 1015 q 888 869 939 951 q 785 702 838 788 q 681 534 732 617 q 590 385 629 451 l 590 385 l 590 0 l 396 0 l 396 385 q 204 700 306 543 q 11 1015 103 857 l 11 1015 l 238 1015 q 365 800 300 911 q 493 585 431 689 l 493 585 q 557 689 524 633 q 624 801 590 744 q 690 912 657 857 q 751 1015 722 967 l 751 1015 z "},"Z":{"ha":975,"x_min":29,"x_max":938,"o":"m 938 1015 l 938 992 l 371 181 l 918 181 l 918 0 l 29 0 l 29 22 l 597 836 l 72 836 l 72 1015 l 938 1015 z "},"A":{"ha":1075,"x_min":8,"x_max":1067,"o":"m 219 0 l 8 0 l 528 1015 l 547 1015 l 1067 0 l 856 0 l 776 160 l 297 160 l 219 0 z m 538 636 l 392 329 l 682 329 l 538 636 z "},"D":{"ha":1092,"x_min":111,"x_max":1022,"o":"m 513 0 l 513 0 l 111 0 l 111 1017 l 513 1017 q 871 889 731 1017 l 871 889 q 984 724 946 821 q 1022 508 1022 628 l 1022 508 q 984 291 1022 388 q 871 126 946 194 l 871 126 q 712 32 803 64 q 513 0 621 0 z m 306 842 l 306 172 l 513 172 q 622 185 567 172 q 723 234 678 197 q 797 336 768 271 q 826 507 826 401 l 826 507 q 797 678 826 613 q 722 781 768 744 q 621 829 676 817 q 513 842 565 842 l 513 842 l 306 842 z "},".":{"ha":267,"x_min":35,"x_max":239,"o":"m 239 92 l 239 92 q 209 19 239 49 q 136 -11 179 -11 l 136 -11 q 65 19 94 -11 q 35 92 35 49 l 35 92 q 65 163 35 133 q 136 193 94 193 l 136 193 q 209 163 179 193 q 239 92 239 133 z "},",":{"ha":292,"x_min":33,"x_max":249,"o":"m 239 108 l 239 108 q 242 24 249 68 q 214 -58 236 -19 q 156 -125 192 -96 q 69 -165 119 -154 l 69 -165 l 46 -114 q 113 -73 90 -100 q 142 -11 136 -46 l 142 -11 q 69 16 100 -12 q 36 86 39 44 l 36 86 q 63 160 33 129 q 133 193 92 190 l 133 193 q 201 172 172 194 q 239 108 229 149 z "},"?":{"ha":803,"x_min":0,"x_max":732,"o":"m 656 940 l 656 940 q 712 853 692 901 q 732 751 732 804 l 732 751 q 712 635 732 683 q 661 555 692 588 q 596 501 631 522 q 531 463 561 479 l 531 463 q 488 438 507 450 q 458 414 468 426 l 458 414 q 429 347 435 381 q 426 294 424 314 l 426 294 l 232 294 q 242 401 229 339 q 301 528 256 464 l 301 528 q 367 591 331 568 q 440 633 404 614 l 440 633 q 485 659 467 647 q 516 683 504 671 q 533 712 528 696 q 538 751 538 728 l 538 751 q 533 776 538 760 q 513 809 529 793 q 466 837 497 825 q 379 849 435 849 l 379 849 q 300 835 333 849 q 244 801 267 822 q 207 753 221 779 q 185 703 193 728 l 185 703 l 0 763 q 31 834 8 788 q 97 927 53 881 q 209 1008 140 974 q 379 1043 278 1043 l 379 1043 q 479 1033 435 1043 q 558 1009 524 1024 q 615 976 592 994 q 656 940 639 958 z m 429 207 l 429 0 l 235 0 l 235 207 l 429 207 z "},"!":{"ha":407,"x_min":99,"x_max":307,"o":"m 307 1015 l 272 296 l 133 296 l 99 1015 l 307 1015 z m 300 207 l 300 0 l 106 0 l 106 207 l 300 207 z "},"(":{"ha":549,"x_min":63,"x_max":500,"o":"m 424 971 l 424 971 q 299 767 340 883 q 257 508 257 650 l 257 508 q 299 250 257 367 q 424 46 340 133 l 424 46 q 460 12 442 28 q 500 -19 479 -4 l 500 -19 l 390 -167 q 334 -123 361 -146 q 283 -74 307 -100 l 283 -74 q 119 185 175 40 q 63 508 63 329 l 63 508 q 119 833 63 689 q 283 1090 175 976 l 283 1090 q 334 1140 307 1117 q 390 1183 361 1163 l 390 1183 l 500 1038 q 424 971 460 1010 z "},")":{"ha":499,"x_min":14,"x_max":451,"o":"m 90 971 l 90 971 q 14 1038 54 1010 l 14 1038 l 124 1183 q 180 1140 153 1163 q 231 1090 207 1117 l 231 1090 q 395 833 339 976 q 451 508 451 689 l 451 508 q 395 185 451 329 q 231 -74 339 40 l 231 -74 q 180 -123 207 -100 q 124 -167 153 -146 l 124 -167 l 14 -19 q 53 12 35 -4 q 90 46 72 28 l 90 46 q 215 250 174 133 q 257 508 257 367 l 257 508 q 215 767 257 650 q 90 971 174 883 z "},"[":{"ha":542,"x_min":128,"x_max":504,"o":"m 504 -46 l 504 -219 l 128 -219 l 128 1249 l 504 1249 l 504 1075 l 322 1075 l 322 -46 l 504 -46 z "},"]":{"ha":467,"x_min":0,"x_max":376,"o":"m 376 -219 l 0 -219 l 0 -46 l 182 -46 l 182 1075 l 0 1075 l 0 1249 l 376 1249 l 376 -219 z "},"+":{"ha":788,"x_min":49,"x_max":739,"o":"m 739 606 l 739 435 l 483 435 l 483 175 l 304 175 l 304 435 l 49 435 l 49 606 l 304 606 l 304 865 l 483 865 l 483 606 l 739 606 z "},"-":{"ha":568,"x_min":53,"x_max":507,"o":"m 507 608 l 507 438 l 53 438 l 53 608 l 507 608 z "},"÷":{"ha":850,"x_min":67,"x_max":781,"o":"m 781 601 l 781 431 l 67 431 l 67 601 l 781 601 z m 521 839 l 521 839 q 492 770 521 799 q 424 742 464 742 l 424 742 q 355 770 383 742 q 326 839 326 799 l 326 839 q 355 908 326 879 q 424 936 383 936 l 424 936 q 492 908 464 936 q 521 839 521 879 z m 521 196 l 521 196 q 492 127 521 156 q 424 99 464 99 l 424 99 q 355 127 383 99 q 326 196 326 156 l 326 196 q 355 264 326 236 q 424 292 383 292 l 424 292 q 492 264 464 292 q 521 196 521 236 z "},"=":{"ha":781,"x_min":71,"x_max":703,"o":"m 703 758 l 703 588 l 71 588 l 71 758 l 703 758 z m 703 422 l 703 251 l 71 251 l 71 422 l 703 422 z "},"*":{"ha":604,"x_min":43,"x_max":557,"o":"m 392 528 l 300 657 l 208 528 l 99 601 l 200 731 l 43 785 l 83 903 l 236 849 l 236 1014 l 365 1014 l 365 849 l 517 903 l 557 785 l 401 731 l 503 601 l 392 528 z "},"©":{"ha":1147,"x_min":51,"x_max":1096,"o":"m 574 -17 l 574 -17 q 370 24 465 -17 q 204 136 275 65 q 92 302 133 207 q 51 506 51 397 l 51 506 q 92 709 51 614 q 204 875 133 804 q 370 987 275 946 q 574 1028 465 1028 l 574 1028 q 777 987 682 1028 q 943 875 872 946 q 1055 709 1014 804 q 1096 506 1096 614 l 1096 506 q 1055 302 1096 397 q 943 136 1014 207 q 777 24 872 65 q 574 -17 682 -17 z m 574 896 l 574 896 q 422 865 493 896 q 297 781 350 835 q 213 657 244 728 q 182 506 182 586 l 182 506 q 213 353 182 425 q 297 229 244 282 q 422 145 350 176 q 574 114 493 114 l 574 114 q 725 145 654 114 q 849 229 796 176 q 933 353 903 282 q 964 506 964 425 l 964 506 q 933 657 964 586 q 849 781 903 728 q 725 865 796 835 q 574 896 654 896 z m 818 371 l 717 411 q 656 356 693 376 q 574 335 618 335 l 574 335 q 506 348 538 335 q 452 385 475 361 q 415 439 429 408 q 401 506 401 469 l 401 506 q 415 572 401 540 q 452 626 429 603 q 506 663 475 650 q 574 676 538 676 l 574 676 q 659 653 621 676 q 721 593 697 631 l 721 593 l 822 633 q 721 743 786 701 q 574 785 656 785 l 574 785 q 465 763 515 785 q 376 703 414 740 q 315 615 338 665 q 293 506 293 564 l 293 506 q 315 397 293 447 q 376 308 338 346 q 465 247 414 269 q 574 225 515 225 l 574 225 q 717 265 653 225 q 818 371 782 306 l 818 371 z "},"@":{"ha":1176,"x_min":60,"x_max":1119,"o":"m 972 918 l 972 918 q 1119 563 1119 794 l 1119 563 q 1010 244 1119 328 l 1010 244 q 933 210 975 218 q 846 215 890 203 l 846 215 q 790 242 814 224 q 747 283 765 260 l 747 283 q 669 232 715 251 q 565 213 624 213 l 565 213 q 369 290 440 213 q 299 501 299 367 l 299 501 q 318 618 299 565 q 373 708 338 671 q 458 767 408 746 q 567 788 507 788 l 567 788 q 642 777 611 788 q 697 750 674 767 l 697 750 l 697 782 l 838 782 l 838 436 q 839 407 838 422 q 846 378 840 392 q 860 353 851 364 q 883 339 868 343 l 883 339 q 956 388 932 328 q 981 563 981 447 l 981 563 q 956 711 981 646 q 882 817 931 776 l 882 817 q 758 881 832 858 q 583 904 683 904 l 583 904 q 411 869 483 904 q 292 779 339 835 q 223 653 246 724 q 200 513 200 583 l 200 513 q 214 373 200 446 q 267 240 228 300 q 376 140 307 179 q 557 101 446 101 l 557 101 q 681 111 633 101 q 756 133 729 121 q 792 155 782 144 q 803 167 801 165 l 803 167 l 908 75 q 866 42 893 58 q 797 12 839 25 q 697 -10 756 -1 q 557 -19 638 -19 l 557 -19 q 348 17 440 -19 q 192 122 256 53 q 94 289 128 190 q 60 513 60 388 l 60 513 q 94 711 60 618 q 194 875 129 804 l 194 875 q 365 994 267 954 q 583 1035 464 1035 l 583 1035 q 972 918 835 1035 z m 697 474 l 697 539 q 692 581 697 558 q 674 622 688 603 q 635 653 661 640 q 567 665 610 665 l 567 665 q 506 649 529 665 q 469 607 482 632 q 451 553 456 582 q 446 501 446 525 l 446 501 q 457 422 446 453 q 486 373 468 392 q 525 347 504 354 q 565 340 546 340 l 565 340 q 614 347 590 340 q 656 369 638 353 q 685 410 674 385 q 697 474 697 436 l 697 474 z "},"&":{"ha":951,"x_min":33,"x_max":913,"o":"m 913 93 l 767 -19 l 636 114 q 546 49 589 74 q 466 9 503 24 q 400 -10 429 -6 q 353 -17 371 -15 l 353 -17 q 240 -3 293 -19 q 146 47 188 14 q 77 127 104 81 q 43 231 50 174 l 43 231 q 66 376 33 314 q 161 492 99 439 l 161 492 q 201 522 176 504 q 242 550 225 539 l 242 550 q 172 672 193 608 q 160 803 150 736 l 160 803 q 197 908 167 861 q 274 988 226 956 l 274 988 q 381 1030 322 1019 q 497 1025 440 1040 l 497 1025 q 600 971 554 1010 q 669 879 646 932 l 669 879 q 693 769 694 826 q 665 657 692 711 l 665 657 q 602 578 643 613 q 510 514 561 544 l 510 514 l 632 388 q 706 501 682 458 q 731 546 731 544 l 731 546 l 899 464 q 869 410 897 461 q 782 276 840 358 l 782 276 q 772 264 776 269 q 764 251 768 258 l 764 251 l 913 93 z m 521 235 l 340 421 q 275 376 303 400 l 275 376 q 260 363 269 372 q 243 338 251 353 q 230 301 235 322 q 229 251 225 279 l 229 251 q 266 185 233 213 q 344 154 299 157 l 344 154 q 405 161 378 153 q 453 182 432 169 q 492 208 475 194 q 521 235 508 222 l 521 235 z m 336 790 l 336 790 q 350 708 332 750 q 394 638 368 665 l 394 638 q 435 664 414 649 q 472 694 457 679 l 472 694 q 515 799 515 739 l 515 799 q 490 856 515 835 q 433 879 465 878 q 371 860 400 881 q 336 790 342 839 z "},"/":{"ha":753,"x_min":-35,"x_max":764,"o":"m 146 -192 l -35 -192 l 583 1158 l 764 1158 l 146 -192 z "},"§":{"ha":736,"x_min":61,"x_max":665,"o":"m 567 364 l 567 364 q 608 340 589 357 q 639 299 626 322 q 658 249 651 275 q 665 201 665 224 l 665 201 q 640 101 665 143 q 573 33 614 60 q 481 -7 532 6 q 376 -19 429 -19 l 376 -19 q 268 -6 319 -19 q 176 27 217 8 q 105 65 135 46 q 61 94 75 85 l 61 94 l 146 214 q 179 192 157 207 q 231 161 201 176 q 297 134 261 146 q 374 122 333 122 l 374 122 q 417 127 393 122 q 460 142 440 132 q 494 166 481 151 q 508 201 508 181 l 508 201 q 494 235 508 222 q 458 257 481 249 q 407 272 436 265 q 347 288 378 279 l 347 288 q 269 304 317 293 q 175 340 221 315 q 97 403 129 364 q 64 508 64 443 l 64 508 q 81 577 64 547 q 119 627 97 607 q 161 658 140 647 q 189 672 182 669 l 189 672 q 97 733 131 688 q 64 828 64 778 l 64 828 q 99 937 64 896 q 179 999 133 978 q 270 1027 225 1021 q 338 1033 315 1033 l 338 1033 q 487 1010 417 1033 q 629 936 557 986 l 629 936 l 542 818 q 439 879 489 861 q 335 897 389 897 l 335 897 q 247 878 274 897 q 221 829 221 860 l 221 829 q 240 790 221 806 q 285 763 258 774 q 342 747 313 753 q 390 736 371 740 l 390 736 q 468 717 421 729 q 558 680 515 704 q 633 615 601 656 q 664 513 664 575 l 664 513 q 635 415 664 454 q 567 364 607 375 z m 197 500 l 197 500 q 233 460 204 476 q 299 432 263 443 q 369 415 335 421 q 424 410 404 410 l 424 410 q 461 415 442 410 q 496 433 481 421 q 521 461 511 444 q 531 499 531 478 l 531 499 q 510 543 531 521 q 457 582 489 565 q 385 609 425 599 q 307 619 344 619 l 307 619 q 292 619 310 619 q 253 610 275 618 q 212 583 231 601 q 193 529 193 564 l 193 529 q 197 500 193 517 z "},"¢":{"ha":860,"x_min":53,"x_max":832,"o":"m 468 263 l 468 263 q 533 272 506 263 q 583 295 561 281 q 621 329 604 310 q 653 369 638 349 l 653 369 l 828 299 q 716 172 785 224 q 560 100 647 119 l 560 100 l 560 -17 l 365 -17 l 365 103 q 241 158 299 119 q 142 249 183 196 q 76 367 100 301 q 53 506 53 433 l 53 506 q 76 643 53 578 q 142 762 100 708 q 241 853 183 815 q 365 908 299 892 l 365 908 l 365 1035 l 560 1035 l 560 911 q 718 838 647 892 q 832 706 789 783 l 832 706 l 657 635 q 624 678 642 657 q 583 714 606 699 q 531 739 560 729 q 468 749 503 749 l 468 749 q 379 731 421 749 q 306 682 338 714 q 257 606 275 650 q 239 506 239 561 l 239 506 q 257 407 239 451 q 306 331 275 363 q 379 281 338 299 q 468 263 421 263 z "},"{":{"ha":572,"x_min":68,"x_max":547,"o":"m 374 17 l 374 17 q 425 -24 396 -10 q 481 -44 454 -37 q 528 -53 508 -51 q 547 -54 547 -54 l 547 -54 l 547 -240 l 546 -240 q 501 -237 536 -240 q 420 -221 467 -235 q 324 -180 374 -207 q 232 -103 274 -153 l 232 -103 q 184 -22 200 -65 q 161 66 168 22 q 153 151 154 110 q 153 221 153 192 l 153 221 q 153 303 153 269 q 148 361 154 338 q 124 398 142 385 q 68 418 106 411 l 68 418 l 68 610 q 121 631 103 614 q 146 673 139 647 q 153 733 153 699 q 153 807 153 768 l 153 807 q 153 876 153 836 q 161 961 154 917 q 184 1049 168 1006 q 232 1131 200 1093 l 232 1131 q 326 1208 274 1181 q 424 1249 378 1236 q 505 1264 471 1261 q 547 1267 539 1267 l 547 1267 l 547 1081 q 528 1079 547 1081 q 481 1072 508 1078 q 425 1051 454 1065 q 374 1011 396 1036 l 374 1011 q 353 968 360 994 q 342 913 346 942 q 339 857 339 885 q 339 811 339 829 l 339 811 q 341 746 340 788 q 335 659 342 704 q 314 574 329 614 q 268 514 299 533 l 268 514 q 313 444 299 481 q 333 371 328 408 q 337 294 338 333 q 339 217 336 256 l 339 217 q 339 170 339 197 q 342 115 339 143 q 353 60 346 86 q 374 17 360 33 z "},"}":{"ha":572,"x_min":24,"x_max":503,"o":"m 197 17 l 197 17 q 218 60 211 33 q 228 115 225 86 q 232 170 232 143 q 232 217 232 197 l 232 217 q 234 294 235 256 q 238 371 233 333 q 257 444 243 408 q 303 514 271 481 l 303 514 q 257 574 272 533 q 235 659 242 614 q 229 746 229 704 q 232 811 229 788 l 232 811 q 232 857 232 829 q 228 913 232 885 q 218 968 225 942 q 197 1011 211 994 l 197 1011 q 146 1051 175 1036 q 90 1072 117 1065 q 43 1079 63 1078 q 24 1081 24 1081 l 24 1081 l 24 1267 q 66 1264 32 1267 q 147 1249 100 1261 q 245 1208 193 1236 q 339 1131 297 1181 l 339 1131 q 386 1049 369 1093 q 410 961 403 1006 q 417 876 417 917 q 418 807 418 836 l 418 807 q 418 733 418 768 q 425 673 418 699 q 449 631 432 647 q 503 610 467 614 l 503 610 l 503 418 q 447 398 465 411 q 423 361 429 385 q 417 303 417 338 q 418 221 418 269 l 418 221 q 417 151 418 192 q 410 66 417 110 q 386 -22 403 22 q 339 -103 369 -65 l 339 -103 q 247 -180 297 -153 q 151 -221 197 -207 q 69 -237 104 -235 q 25 -240 35 -240 l 25 -240 l 24 -240 l 24 -54 q 43 -53 24 -54 q 90 -44 63 -51 q 146 -24 117 -37 q 197 17 175 -10 z "},"€":{"ha":953,"x_min":31,"x_max":928,"o":"m 750 283 l 928 206 q 918 186 926 204 q 891 143 910 168 q 844 90 872 118 q 777 37 817 61 q 685 -3 738 13 q 569 -19 633 -19 l 569 -19 q 433 0 501 -19 q 307 62 365 19 q 205 172 249 104 q 142 338 161 240 l 142 338 l 31 338 l 31 478 l 129 478 l 129 482 q 130 517 129 500 q 132 549 131 533 l 132 549 l 31 549 l 31 689 l 156 689 q 257 885 186 801 l 257 885 q 397 995 317 957 q 569 1033 478 1033 l 569 1033 q 722 1003 657 1033 q 829 935 786 972 q 894 865 872 897 q 917 829 915 832 l 917 829 l 746 736 q 731 761 743 742 q 697 802 718 781 q 643 840 675 824 q 569 857 611 857 l 569 857 q 445 810 499 857 q 360 689 392 764 l 360 689 l 640 689 l 640 549 l 326 549 q 324 517 324 533 q 324 482 324 500 l 324 482 l 324 478 l 640 478 l 640 338 l 342 338 q 369 270 351 303 q 415 213 388 238 q 480 172 442 188 q 569 157 518 157 l 569 157 q 654 176 619 157 q 710 219 689 196 q 740 263 731 243 q 750 283 750 283 l 750 283 z m 746 736 l 747 735 q 746 736 747 735 l 746 736 z "},"$":{"ha":944,"x_min":64,"x_max":886,"o":"m 360 1031 l 360 1144 l 553 1144 l 553 1033 q 631 1017 594 1028 q 701 992 667 1007 q 768 956 735 976 q 839 908 801 935 l 839 908 l 731 756 q 592 832 658 806 q 451 858 525 858 l 451 858 q 394 852 426 858 q 334 832 363 846 q 287 797 306 818 q 268 744 268 775 l 268 744 q 290 693 268 714 q 347 658 313 672 q 424 635 382 644 q 504 615 465 625 l 504 615 q 573 601 533 608 q 655 582 613 594 q 739 549 697 569 q 813 495 781 528 q 866 415 846 463 q 886 299 886 367 l 886 299 q 862 171 886 226 q 794 76 838 115 q 689 16 750 38 q 553 -11 628 -6 l 553 -11 l 553 -124 l 360 -124 l 360 0 q 276 22 314 8 q 202 53 238 35 q 133 94 167 72 q 64 140 100 115 l 64 140 l 169 296 q 327 205 246 243 q 497 167 408 167 l 497 167 q 581 178 544 167 q 642 209 617 190 q 679 252 667 228 q 692 300 692 276 l 692 300 q 673 352 692 331 q 623 388 654 374 q 549 411 592 401 q 461 429 507 421 l 461 429 q 390 442 431 435 q 307 463 350 450 q 222 498 264 476 q 147 552 181 519 q 94 630 114 585 q 74 736 74 675 l 74 736 q 98 860 74 808 q 163 947 122 913 q 254 1002 203 982 q 360 1031 306 1022 l 360 1031 z "},"#":{"ha":1189,"x_min":25,"x_max":1161,"o":"m 1028 433 l 958 254 l 771 254 l 671 0 l 479 0 l 579 254 l 400 254 l 301 0 l 110 0 l 208 254 l 25 254 l 94 433 l 279 433 l 342 593 l 158 593 l 228 772 l 411 772 l 507 1018 l 699 1018 l 603 772 l 781 772 l 878 1018 l 1069 1018 l 972 772 l 1161 772 l 1092 593 l 903 593 l 840 433 l 1028 433 z m 649 433 l 711 593 l 533 593 l 471 433 l 649 433 z "},"£":{"ha":854,"x_min":72,"x_max":831,"o":"m 369 431 l 369 431 q 370 331 375 375 q 355 253 365 286 q 329 199 344 221 q 300 169 314 178 l 300 169 l 792 169 l 792 0 l 72 0 l 72 167 q 101 181 85 172 q 133 206 117 190 q 163 244 149 221 q 185 301 176 268 l 185 301 q 190 367 193 333 q 179 431 186 400 l 179 431 l 75 431 l 75 583 l 158 583 l 146 685 q 163 828 139 764 q 233 938 186 892 q 344 1008 279 983 q 488 1033 410 1033 l 488 1033 q 629 1006 569 1033 q 730 937 689 978 q 795 849 771 896 q 831 765 819 803 l 831 765 l 650 708 q 627 767 643 739 q 589 815 611 794 q 540 849 567 836 q 488 861 514 861 l 488 861 q 367 819 404 861 q 335 700 329 778 l 335 700 q 340 642 338 675 q 347 583 343 610 l 347 583 l 642 583 l 642 431 l 369 431 z "},"'":{"ha":319,"x_min":64,"x_max":250,"o":"m 250 1031 l 228 728 l 88 728 l 64 1031 l 250 1031 z "},"<":{"ha":768,"x_min":74,"x_max":692,"o":"m 74 593 l 692 883 l 692 686 l 272 504 l 692 324 l 692 125 l 74 415 l 74 593 z "},">":{"ha":768,"x_min":74,"x_max":692,"o":"m 74 883 l 692 593 l 692 415 l 74 125 l 74 324 l 493 504 l 74 686 l 74 883 z "},":":{"ha":267,"x_min":35,"x_max":239,"o":"m 239 92 l 239 92 q 209 19 239 49 q 136 -11 179 -11 l 136 -11 q 64 19 93 -11 q 35 92 35 49 l 35 92 q 64 163 35 133 q 136 193 93 193 l 136 193 q 209 163 179 193 q 239 92 239 133 z m 239 483 l 239 483 q 209 412 239 442 q 136 382 179 382 l 136 382 q 64 412 93 382 q 35 483 35 442 l 35 483 q 64 556 35 526 q 136 586 93 586 l 136 586 q 209 556 179 586 q 239 483 239 526 z "},";":{"ha":274,"x_min":33,"x_max":249,"o":"m 239 108 l 239 108 q 201 172 229 149 q 133 193 172 194 l 133 193 q 62 160 90 190 q 36 86 33 129 l 36 86 q 68 16 38 44 q 142 -11 99 -12 l 142 -11 q 113 -73 136 -46 q 46 -114 90 -100 l 46 -114 l 69 -165 q 155 -125 118 -154 q 214 -58 192 -96 q 242 24 236 -19 q 239 108 249 68 z m 240 483 l 240 483 q 210 412 240 442 q 138 382 181 382 l 138 382 q 65 412 94 382 q 36 483 36 442 l 36 483 q 65 556 36 526 q 138 586 94 586 l 138 586 q 210 556 181 586 q 240 483 240 526 z "},"”":{"ha":544,"x_min":26,"x_max":519,"o":"m 232 950 l 232 950 q 235 866 242 910 q 207 783 229 822 q 148 716 185 744 q 63 676 111 688 l 63 676 l 39 726 q 106 769 83 742 q 135 831 129 796 l 135 831 q 61 857 92 828 q 29 928 31 886 l 29 928 q 55 1001 26 971 q 126 1035 83 1032 l 126 1035 q 194 1013 165 1036 q 232 950 222 990 z m 510 950 l 510 950 q 513 866 519 910 q 485 783 507 822 q 426 716 463 744 q 340 676 389 688 l 340 676 l 317 726 q 384 769 361 742 q 413 831 407 796 l 413 831 q 339 857 369 828 q 307 928 308 886 l 307 928 q 333 1001 304 971 q 404 1035 361 1032 l 404 1035 q 472 1013 443 1036 q 510 950 500 990 z "},"“":{"ha":624,"x_min":56,"x_max":550,"o":"m 344 761 l 344 761 q 340 845 333 801 q 369 928 347 889 q 428 995 392 967 q 514 1035 465 1024 l 514 1035 l 538 985 q 471 942 494 969 q 443 881 447 915 l 443 881 q 515 853 485 882 q 547 783 546 825 l 547 783 q 522 710 550 740 q 450 676 493 679 l 450 676 q 383 698 411 675 q 344 761 354 721 z m 67 761 l 67 761 q 63 845 56 801 q 92 928 69 889 q 151 995 114 967 q 236 1035 188 1024 l 236 1035 l 260 985 q 193 942 217 969 q 164 881 169 915 l 164 881 q 238 854 207 883 q 269 783 268 825 l 269 783 q 244 710 272 740 q 172 676 215 679 l 172 676 q 105 698 133 675 q 67 761 76 721 z "},"‘":{"ha":342,"x_min":56,"x_max":272,"o":"m 67 761 l 67 761 q 63 845 56 801 q 92 928 69 889 q 151 995 114 967 q 236 1035 188 1024 l 236 1035 l 260 985 q 193 942 217 969 q 164 881 169 915 l 164 881 q 238 854 207 883 q 269 783 268 825 l 269 783 q 244 710 272 740 q 172 676 215 679 l 172 676 q 105 698 133 675 q 67 761 76 721 z "},"’":{"ha":267,"x_min":26,"x_max":242,"o":"m 232 950 l 232 950 q 235 866 242 910 q 207 783 229 822 q 148 716 185 744 q 63 676 111 688 l 63 676 l 39 726 q 106 769 83 742 q 135 831 129 796 l 135 831 q 61 857 92 828 q 29 928 31 886 l 29 928 q 55 1001 26 971 q 126 1035 83 1032 l 126 1035 q 194 1013 165 1036 q 232 950 222 990 z "},"–":{"ha":686,"x_min":53,"x_max":628,"o":"m 628 608 l 628 438 l 53 438 l 53 608 l 628 608 z "},"—":{"ha":1022,"x_min":53,"x_max":961,"o":"m 961 608 l 961 438 l 53 438 l 53 608 l 961 608 z "},"_":{"ha":928,"x_min":74,"x_max":843,"o":"m 843 0 l 843 -171 l 74 -171 l 74 0 l 843 0 z "},"~":{"ha":797,"x_min":61,"x_max":724,"o":"m 513 453 l 513 453 l 510 453 q 418 472 457 454 q 347 508 379 489 l 347 508 q 301 534 322 524 q 256 544 279 544 l 256 544 q 222 535 236 544 q 199 513 208 525 q 185 491 189 501 q 179 478 181 481 l 179 478 l 61 514 q 82 563 67 536 q 121 613 97 589 q 178 652 144 636 q 256 668 211 668 l 256 668 l 257 668 q 342 651 306 668 q 411 615 379 635 l 411 615 q 460 589 438 600 q 511 576 483 578 l 511 576 q 538 581 518 576 q 579 613 557 585 l 579 613 q 599 644 593 631 l 599 644 q 606 660 603 651 l 606 660 l 724 621 q 699 568 715 597 q 656 513 682 539 q 594 470 631 488 q 513 453 558 453 z "},"˜":{"ha":657,"x_min":49,"x_max":603,"o":"m 424 1060 l 424 1060 l 418 1060 q 337 1083 367 1063 q 286 1122 307 1103 l 286 1122 q 259 1144 271 1138 q 225 1151 247 1151 l 225 1151 q 199 1140 210 1151 q 180 1113 188 1128 q 167 1087 172 1099 q 163 1075 163 1075 l 163 1075 l 49 1107 q 67 1158 54 1129 q 102 1213 81 1188 q 153 1256 124 1239 q 222 1275 183 1274 l 222 1275 q 312 1255 279 1276 q 365 1214 344 1233 l 365 1214 q 392 1192 381 1199 q 422 1185 403 1186 l 422 1185 q 451 1194 439 1183 q 472 1215 464 1204 l 472 1215 q 490 1247 482 1229 l 490 1247 l 603 1207 q 586 1169 597 1192 q 556 1125 575 1147 l 556 1125 q 494 1076 528 1093 q 424 1060 461 1060 z "},"\\":{"ha":685,"x_min":1,"x_max":686,"o":"m 501 -192 l 1 1158 l 186 1158 l 686 -192 l 501 -192 z "},"®":{"ha":1149,"x_min":49,"x_max":1094,"o":"m 571 -17 l 571 -17 q 367 24 463 -17 q 201 137 272 65 q 90 303 131 208 q 49 507 49 399 l 49 507 q 90 710 49 615 q 201 876 131 806 q 367 988 272 947 q 571 1029 463 1029 l 571 1029 q 774 988 679 1029 q 941 876 869 947 q 1053 710 1013 806 q 1094 507 1094 615 l 1094 507 q 1053 303 1094 399 q 941 137 1013 208 q 774 24 869 65 q 571 -17 679 -17 z m 571 899 l 571 899 q 419 867 490 899 q 294 783 347 836 q 210 659 242 731 q 179 507 179 588 l 179 507 q 210 355 179 426 q 294 231 242 283 q 419 147 347 178 q 571 115 490 115 l 571 115 q 723 147 651 115 q 847 231 794 178 q 931 355 900 283 q 963 507 963 426 l 963 507 q 931 659 963 588 q 847 783 900 731 q 723 867 794 836 q 571 899 651 899 z m 390 279 l 499 279 l 499 403 l 564 403 q 611 341 588 371 q 657 279 635 311 l 657 279 l 792 279 q 740 350 767 315 q 686 421 714 385 l 686 421 q 750 481 726 442 q 774 571 774 519 l 774 571 q 728 692 774 646 q 607 738 682 738 l 607 738 l 390 738 l 390 279 z m 499 513 l 499 629 l 607 629 q 646 618 626 629 q 665 571 665 607 l 665 571 q 658 539 665 550 q 642 522 651 528 q 622 514 632 515 q 607 513 613 513 l 607 513 l 499 513 z "},"°":{"ha":467,"x_min":57,"x_max":408,"o":"m 233 840 l 233 840 q 165 854 197 840 q 108 892 132 868 q 71 948 85 915 q 57 1017 57 981 l 57 1017 q 71 1085 57 1053 q 108 1141 85 1117 q 165 1179 132 1165 q 233 1193 197 1193 l 233 1193 q 301 1179 269 1193 q 357 1141 333 1165 q 394 1085 381 1117 q 408 1017 408 1053 l 408 1017 q 394 948 408 981 q 357 892 381 915 q 301 854 333 868 q 233 840 269 840 z m 233 1083 l 233 1083 q 185 1064 206 1083 q 165 1017 165 1044 l 165 1017 q 185 969 165 989 q 233 950 206 950 l 233 950 q 281 969 261 950 q 300 1017 300 989 l 300 1017 q 281 1064 300 1044 q 233 1083 261 1083 z "},"•":{"ha":503,"x_min":94,"x_max":408,"o":"m 94 563 l 94 563 q 107 623 94 594 q 141 673 119 651 q 191 707 163 694 q 251 719 219 719 l 251 719 q 312 707 283 719 q 362 673 340 694 q 396 623 383 651 q 408 563 408 594 l 408 563 q 396 502 408 531 q 362 452 383 474 q 312 418 340 431 q 251 406 283 406 l 251 406 q 191 418 219 406 q 141 452 163 431 q 107 502 119 474 q 94 563 94 531 z "},"†":{"ha":671,"x_min":31,"x_max":640,"o":"m 640 707 l 640 550 l 414 550 l 414 -83 l 257 -83 l 257 550 l 31 550 l 31 707 l 257 707 l 257 972 l 414 972 l 414 707 l 640 707 z "},"™":{"ha":1179,"x_min":71,"x_max":1076,"o":"m 1046 1018 l 1076 1018 l 1076 506 l 951 506 l 951 707 l 821 549 l 690 707 l 690 506 l 565 506 l 565 1018 l 596 1018 l 821 743 l 1046 1018 z m 71 897 l 71 1018 l 501 1018 l 501 897 l 349 897 l 349 506 l 224 506 l 224 897 l 71 897 z "},"\"":{"ha":617,"x_min":64,"x_max":544,"o":"m 250 1031 l 228 728 l 88 728 l 64 1031 l 250 1031 z m 544 1031 l 521 728 l 381 728 l 358 1031 l 544 1031 z "},"|":{"ha":397,"x_min":128,"x_max":268,"o":"m 268 1161 l 268 -147 l 128 -147 l 128 1161 l 268 1161 z "},"Æ":{"ha":1475,"x_min":-17,"x_max":1385,"o":"m 1385 843 l 831 843 l 831 592 l 1322 592 l 1322 414 l 831 414 l 831 176 l 1385 176 l 1385 0 l 636 0 l 636 171 l 315 171 l 203 0 l -17 0 l 654 1018 l 1385 1018 l 1385 843 z m 636 343 l 636 672 l 428 343 l 636 343 z "},"%":{"ha":1333,"x_min":46,"x_max":1279,"o":"m 306 456 l 306 456 q 201 477 249 456 q 119 536 154 499 q 65 626 85 574 q 46 739 46 678 l 46 739 q 65 853 46 801 q 119 943 85 906 q 201 1002 154 981 q 306 1024 249 1024 l 306 1024 q 409 1002 361 1024 q 492 943 457 981 q 546 853 526 906 q 565 739 565 801 l 565 739 q 545 626 565 678 q 490 537 525 575 q 408 477 456 499 q 306 456 361 456 z m 1021 -21 l 1021 -21 q 917 1 964 -21 q 835 60 869 22 q 781 149 800 97 q 761 264 761 201 l 761 264 q 781 377 761 325 q 835 467 800 429 q 917 526 869 504 q 1021 547 964 547 l 1021 547 q 1124 526 1076 547 q 1206 467 1172 504 q 1260 377 1240 429 q 1279 264 1279 325 l 1279 264 q 1260 151 1279 203 q 1206 60 1240 99 q 1124 1 1171 22 q 1021 -21 1076 -21 z m 289 0 l 447 0 l 1050 1018 l 892 1018 l 289 0 z m 1021 400 l 1021 400 q 973 383 990 400 q 947 342 956 365 q 935 297 938 319 q 933 264 933 274 l 933 264 q 935 234 933 257 q 946 188 938 211 q 972 145 954 164 q 1021 126 989 126 l 1021 126 q 1060 140 1043 126 q 1088 174 1076 153 q 1103 219 1099 194 q 1108 264 1108 243 l 1108 264 q 1104 307 1108 283 q 1090 351 1100 331 q 1063 386 1079 372 q 1021 400 1046 400 z m 306 875 l 306 875 q 258 858 275 875 q 231 817 240 840 q 220 772 222 794 q 218 739 218 749 l 218 739 q 220 710 218 732 q 231 664 222 688 q 256 622 239 640 q 306 603 274 603 l 306 603 q 344 616 328 603 q 372 650 361 629 q 388 694 383 671 q 393 739 393 718 l 393 739 q 389 782 393 758 q 374 826 385 806 q 347 861 364 847 q 306 875 331 875 z "},"`":{"ha":394,"x_min":32,"x_max":354,"o":"m 192 1281 l 354 1071 l 218 1071 l 32 1211 l 192 1281 z "},"‰":{"ha":1908,"x_min":46,"x_max":1864,"o":"m 306 456 l 306 456 q 201 477 249 456 q 119 536 154 499 q 65 626 85 574 q 46 739 46 678 l 46 739 q 65 853 46 801 q 119 943 85 906 q 201 1002 154 981 q 306 1024 249 1024 l 306 1024 q 409 1002 361 1024 q 492 943 457 981 q 546 853 526 906 q 565 739 565 801 l 565 739 q 545 626 565 678 q 490 537 525 575 q 408 477 456 499 q 306 456 361 456 z m 1604 -21 l 1604 -21 q 1500 1 1547 -21 q 1419 60 1453 22 q 1365 149 1385 97 q 1346 264 1346 201 l 1346 264 q 1365 377 1346 325 q 1419 467 1385 429 q 1500 526 1453 504 q 1604 547 1547 547 l 1604 547 q 1708 526 1660 547 q 1790 467 1756 504 q 1844 377 1825 429 q 1864 264 1864 325 l 1864 264 q 1844 151 1864 203 q 1790 60 1825 99 q 1708 1 1756 22 q 1604 -21 1660 -21 z m 1021 -21 l 1021 -21 q 917 1 964 -21 q 835 60 869 22 q 781 149 800 97 q 761 264 761 201 l 761 264 q 781 377 761 325 q 835 467 800 429 q 917 526 869 504 q 1021 547 964 547 l 1021 547 q 1124 526 1076 547 q 1206 467 1172 504 q 1260 377 1240 429 q 1279 264 1279 325 l 1279 264 q 1260 151 1279 203 q 1206 60 1240 99 q 1124 1 1171 22 q 1021 -21 1076 -21 z m 289 0 l 447 0 l 1050 1018 l 892 1018 l 289 0 z m 1604 400 l 1604 400 q 1556 383 1574 400 q 1530 342 1539 365 q 1519 297 1521 319 q 1517 264 1517 274 l 1517 264 q 1519 234 1517 257 q 1529 188 1521 211 q 1555 145 1538 164 q 1604 126 1572 126 l 1604 126 q 1644 140 1626 126 q 1672 174 1661 153 q 1688 219 1682 194 q 1693 264 1693 243 l 1693 264 q 1688 307 1693 283 q 1673 351 1683 331 q 1646 386 1663 372 q 1604 400 1629 400 z m 1021 400 l 1021 400 q 973 383 990 400 q 947 342 956 365 q 935 297 938 319 q 933 264 933 274 l 933 264 q 935 234 933 257 q 946 188 938 211 q 972 145 954 164 q 1021 126 989 126 l 1021 126 q 1060 140 1043 126 q 1088 174 1076 153 q 1103 219 1099 194 q 1108 264 1108 243 l 1108 264 q 1104 307 1108 283 q 1090 351 1100 331 q 1063 386 1079 372 q 1021 400 1046 400 z m 306 875 l 306 875 q 258 858 275 875 q 231 817 240 840 q 220 772 222 794 q 218 739 218 749 l 218 739 q 220 710 218 732 q 231 664 222 688 q 256 622 239 640 q 306 603 274 603 l 306 603 q 344 616 328 603 q 372 650 361 629 q 388 694 383 671 q 393 739 393 718 l 393 739 q 389 782 393 758 q 374 826 385 806 q 347 861 364 847 q 306 875 331 875 z "},"¥":{"ha":850,"x_min":13,"x_max":835,"o":"m 835 1018 l 560 543 l 751 543 l 751 418 l 521 418 l 521 299 l 751 299 l 751 175 l 521 175 l 521 0 l 326 0 l 326 175 l 108 175 l 108 299 l 326 299 l 326 418 l 108 418 l 108 543 l 289 543 l 13 1018 l 238 1018 l 424 696 l 610 1018 l 835 1018 z "},"‡":{"ha":679,"x_min":31,"x_max":640,"o":"m 31 182 l 31 339 l 257 339 l 257 550 l 31 550 l 31 707 l 257 707 l 257 972 l 414 972 l 414 707 l 640 707 l 640 550 l 414 550 l 414 339 l 640 339 l 640 182 l 414 182 l 414 -83 l 257 -83 l 257 182 l 31 182 z "},"‚":{"ha":292,"x_min":33,"x_max":249,"o":"m 239 108 l 239 108 q 242 24 249 68 q 214 -58 236 -19 q 156 -125 192 -96 q 69 -165 119 -154 l 69 -165 l 46 -114 q 113 -73 90 -100 q 142 -11 136 -46 l 142 -11 q 69 16 100 -12 q 36 86 39 44 l 36 86 q 63 160 33 129 q 133 193 92 190 l 133 193 q 201 172 172 194 q 239 108 229 149 z "},"≠":{"ha":781,"x_min":71,"x_max":703,"o":"m 703 581 l 518 581 l 442 424 l 703 424 l 703 244 l 354 244 l 285 103 l 86 103 l 156 244 l 71 244 l 71 424 l 243 424 l 321 581 l 71 581 l 71 760 l 408 760 l 478 901 l 676 901 l 606 760 l 703 760 l 703 581 z "},"ª":{"ha":506,"x_min":61,"x_max":436,"o":"m 429 828 l 429 600 l 335 600 l 335 625 q 298 603 319 610 q 253 594 276 596 l 253 594 l 246 594 q 117 630 165 594 q 65 728 68 665 l 65 728 q 103 835 61 793 l 103 835 q 137 861 118 851 q 174 876 156 871 q 210 883 193 882 q 240 885 228 885 l 240 885 q 292 878 268 883 q 335 860 315 872 l 335 860 q 323 918 336 900 q 288 946 310 936 l 288 946 q 233 956 260 957 q 185 947 207 954 q 147 931 164 940 q 119 915 129 921 l 119 915 l 72 990 q 97 1003 74 992 q 156 1025 119 1014 l 156 1025 q 326 1024 257 1054 l 326 1024 q 382 985 361 1007 q 413 938 403 964 q 426 884 424 913 q 429 828 429 856 l 429 828 z m 436 524 l 436 429 l 61 429 l 61 524 l 436 524 z m 251 681 l 251 681 q 312 696 289 681 q 335 754 335 711 l 335 754 l 335 764 q 301 783 324 771 q 239 794 278 794 l 239 794 q 169 771 194 796 l 169 771 q 162 759 165 768 q 158 733 158 750 l 158 733 q 163 717 158 726 q 176 700 167 708 q 204 686 186 692 q 251 681 222 681 z "},"º":{"ha":549,"x_min":54,"x_max":492,"o":"m 272 596 l 272 596 q 187 613 226 596 q 118 660 147 631 q 72 730 89 690 q 54 815 54 769 l 54 815 q 72 901 54 861 q 118 969 89 940 q 187 1016 147 999 q 272 1033 226 1033 l 272 1033 q 358 1016 318 1033 q 427 969 397 999 q 474 901 457 940 q 492 815 492 861 l 492 815 q 474 730 492 769 q 427 660 457 690 q 358 613 397 631 q 272 596 318 596 z m 272 947 l 272 947 q 224 936 247 947 q 184 907 201 925 q 157 865 167 889 q 147 815 147 840 l 147 815 q 157 765 147 789 q 184 724 167 742 q 224 694 201 706 q 272 683 247 683 l 272 683 q 322 694 299 683 q 361 724 344 706 q 388 765 378 742 q 397 815 397 789 l 397 815 q 388 865 397 840 q 361 907 378 889 q 322 936 344 925 q 272 947 299 947 z m 467 524 l 467 429 l 79 429 l 79 524 l 467 524 z "},"¡":{"ha":407,"x_min":99,"x_max":307,"o":"m 133 719 l 272 719 l 307 0 l 99 0 l 133 719 z m 106 1015 l 300 1015 l 300 808 l 106 808 l 106 1015 z "},"¿":{"ha":811,"x_min":58,"x_max":790,"o":"m 361 1043 l 556 1043 l 556 836 l 361 836 l 361 1043 z m 411 0 l 411 0 q 581 35 513 0 q 694 116 650 69 q 760 209 738 163 q 790 281 782 256 l 790 281 l 606 340 q 583 287 597 315 q 547 235 569 258 q 490 195 524 211 q 411 179 457 179 l 411 179 q 324 194 356 179 q 277 227 293 208 q 257 265 261 246 q 253 292 253 283 l 253 292 q 258 331 253 315 q 274 360 263 347 q 304 383 286 372 q 350 410 322 394 l 350 410 q 423 452 386 429 q 489 515 460 475 l 489 515 q 548 642 535 579 q 558 749 561 704 l 558 749 l 364 749 q 361 696 367 729 q 332 629 356 663 l 332 629 q 293 596 318 610 q 238 566 268 582 q 175 529 207 550 q 117 477 143 508 q 75 401 92 446 q 58 292 58 356 l 58 292 q 90 164 58 218 q 172 73 122 110 q 285 18 222 36 q 411 0 349 0 z "},"…":{"ha":972,"x_min":69,"x_max":904,"o":"m 274 92 l 274 92 q 244 19 274 49 q 171 -11 214 -11 l 171 -11 q 99 19 129 -11 q 69 92 69 49 l 69 92 q 99 163 69 133 q 171 193 129 193 l 171 193 q 244 163 214 193 q 274 92 274 133 z m 589 92 l 589 92 q 559 19 589 49 q 486 -11 529 -11 l 486 -11 q 415 19 444 -11 q 385 92 385 49 l 385 92 q 415 163 385 133 q 486 193 444 193 l 486 193 q 559 163 529 193 q 589 92 589 133 z m 904 92 l 904 92 q 874 19 904 49 q 801 -11 844 -11 l 801 -11 q 730 19 760 -11 q 700 92 700 49 l 700 92 q 730 163 700 133 q 801 193 760 193 l 801 193 q 874 163 844 193 q 904 92 904 133 z "},"⁄":{"ha":735,"x_min":0,"x_max":735,"o":"m 129 0 l 0 0 l 607 1018 l 735 1018 l 129 0 z "},"Œ":{"ha":1611,"x_min":60,"x_max":1521,"o":"m 1521 843 l 967 843 l 967 590 l 1458 590 l 1458 414 l 967 414 l 967 175 l 1521 175 l 1521 0 l 774 0 l 774 15 q 683 -10 729 -1 q 588 -19 636 -19 l 588 -19 q 382 22 478 -19 q 215 135 286 64 q 101 303 143 207 q 60 508 60 400 l 60 508 q 101 713 60 617 q 215 881 143 810 q 382 994 286 953 q 588 1036 478 1036 l 588 1036 q 683 1027 636 1036 q 774 1001 729 1018 l 774 1001 l 774 1017 l 1521 1017 l 1521 843 z m 588 154 l 588 154 q 704 177 664 154 q 774 232 744 200 l 774 232 l 774 785 q 747 813 763 799 q 708 838 731 826 q 656 856 686 849 q 588 863 626 863 l 588 863 q 458 840 518 863 q 352 772 397 817 q 281 660 307 726 q 254 508 254 594 l 254 508 q 281 360 254 425 q 352 249 307 294 q 458 178 397 203 q 588 154 518 154 z "},"^":{"ha":840,"x_min":63,"x_max":765,"o":"m 765 518 l 568 518 l 414 849 l 258 518 l 63 518 l 313 1025 l 515 1025 l 765 518 z "},"„":{"ha":544,"x_min":26,"x_max":519,"o":"m 232 108 l 232 108 q 235 24 242 68 q 207 -58 229 -19 q 148 -126 185 -97 q 63 -165 111 -154 l 63 -165 l 39 -115 q 106 -73 83 -100 q 135 -11 129 -46 l 135 -11 q 61 15 92 -14 q 29 86 31 44 l 29 86 q 55 160 26 129 q 126 193 83 190 l 126 193 q 194 172 165 194 q 232 108 222 149 z m 510 108 l 510 108 q 513 24 519 68 q 485 -58 507 -19 q 426 -126 463 -97 q 340 -165 389 -154 l 340 -165 l 317 -115 q 384 -73 361 -100 q 413 -11 407 -46 l 413 -11 q 339 15 369 -14 q 307 86 308 44 l 307 86 q 333 160 304 129 q 404 193 361 190 l 404 193 q 472 172 443 194 q 510 108 500 149 z "},"·":{"ha":267,"x_min":35,"x_max":239,"o":"m 239 578 l 239 578 q 209 505 239 535 q 136 475 179 475 l 136 475 q 65 505 94 475 q 35 578 35 535 l 35 578 q 65 649 35 619 q 136 679 94 679 l 136 679 q 209 649 179 679 q 239 578 239 619 z "},"±":{"ha":763,"x_min":86,"x_max":667,"o":"m 475 656 l 667 656 l 667 488 l 475 488 l 475 276 l 278 276 l 278 488 l 86 488 l 86 656 l 278 656 l 278 868 l 475 868 l 475 656 z m 667 0 l 86 0 l 86 171 l 667 171 l 667 0 z "},"≤":{"ha":722,"x_min":68,"x_max":647,"o":"m 69 519 l 69 669 l 644 940 l 644 731 l 288 600 l 644 478 l 644 264 l 69 519 z m 647 0 l 68 0 l 68 171 l 647 171 l 647 0 z "},"≥":{"ha":722,"x_min":68,"x_max":647,"o":"m 647 171 l 647 0 l 68 0 l 68 171 l 647 171 z m 71 940 l 646 669 l 646 519 l 71 264 l 71 478 l 428 600 l 71 731 l 71 940 z "},"»":{"ha":942,"x_min":75,"x_max":865,"o":"m 75 189 l 292 510 l 78 835 l 275 835 l 483 510 l 276 189 l 75 189 z m 458 189 l 675 510 l 460 835 l 658 835 l 865 510 l 660 189 l 458 189 z "},"«":{"ha":942,"x_min":75,"x_max":865,"o":"m 865 189 l 664 189 l 457 510 l 665 835 l 863 835 l 649 510 l 865 189 z m 482 189 l 281 189 l 75 510 l 282 835 l 481 835 l 265 510 l 482 189 z "},"‹":{"ha":563,"x_min":75,"x_max":482,"o":"m 482 189 l 281 189 l 75 510 l 282 835 l 481 835 l 265 510 l 482 189 z "},"›":{"ha":563,"x_min":75,"x_max":482,"o":"m 276 189 l 75 189 l 292 510 l 76 835 l 275 835 l 482 510 l 276 189 z "},"¶":{"ha":756,"x_min":35,"x_max":646,"o":"m 415 0 l 285 0 l 285 443 q 194 460 239 443 q 113 510 149 476 q 56 596 78 544 q 35 715 35 647 l 35 715 q 45 824 35 769 q 93 921 56 878 q 202 991 131 964 q 394 1018 274 1018 l 394 1018 l 646 1018 l 646 0 l 515 0 l 515 940 l 415 940 l 415 0 z "},"¦":{"ha":397,"x_min":128,"x_max":268,"o":"m 268 -147 l 128 -147 l 128 390 l 268 390 l 268 -147 z m 128 622 l 128 1161 l 268 1161 l 268 622 l 128 622 z "},"ß":{"ha":1872,"x_min":71,"x_max":1819,"o":"m 71 133 l 71 133 l 176 289 q 334 198 253 236 q 504 160 415 160 l 504 160 q 588 172 551 160 q 649 202 624 183 q 686 245 674 221 q 699 293 699 269 l 699 293 q 680 345 699 324 q 630 381 661 367 q 556 404 599 394 q 468 422 514 414 l 468 422 q 397 435 438 428 q 314 456 357 443 q 229 491 271 469 q 154 545 188 513 q 101 623 121 578 q 81 729 81 668 l 81 729 q 117 877 81 818 q 209 970 153 936 q 334 1018 265 1004 q 467 1032 403 1032 l 467 1032 q 581 1024 531 1032 q 674 999 631 1015 q 758 959 717 983 q 846 901 799 935 l 846 901 l 738 749 q 599 825 665 799 q 458 851 532 851 l 458 851 q 401 845 433 851 q 341 825 369 839 q 294 790 313 811 q 275 738 275 768 l 275 738 q 297 686 275 707 q 354 651 319 665 q 431 628 389 638 q 511 608 472 618 l 511 608 q 580 594 540 601 q 662 575 619 588 q 746 542 704 563 q 820 488 788 521 q 873 408 853 456 q 893 292 893 360 l 893 292 q 865 154 893 213 q 786 58 838 96 q 664 0 735 19 q 507 -19 593 -19 l 507 -19 q 367 -8 428 -19 q 257 24 307 4 q 163 72 207 44 q 71 133 118 100 z m 997 133 l 997 133 l 1103 289 q 1260 198 1179 236 q 1431 160 1342 160 l 1431 160 q 1514 172 1478 160 q 1575 202 1550 183 q 1613 245 1600 221 q 1625 293 1625 269 l 1625 293 q 1606 345 1625 324 q 1556 381 1588 367 q 1483 404 1525 394 q 1394 422 1440 414 l 1394 422 q 1324 435 1364 428 q 1240 456 1283 443 q 1156 491 1197 469 q 1081 545 1114 513 q 1027 623 1047 578 q 1007 729 1007 668 l 1007 729 q 1043 877 1007 818 q 1135 970 1079 936 q 1260 1018 1192 1004 q 1393 1032 1329 1032 l 1393 1032 q 1507 1024 1457 1032 q 1600 999 1557 1015 q 1684 959 1643 983 q 1772 901 1725 935 l 1772 901 l 1664 749 q 1525 825 1592 799 q 1385 851 1458 851 l 1385 851 q 1328 845 1360 851 q 1267 825 1296 839 q 1220 790 1239 811 q 1201 738 1201 768 l 1201 738 q 1224 686 1201 707 q 1281 651 1246 665 q 1357 628 1315 638 q 1438 608 1399 618 l 1438 608 q 1506 594 1467 601 q 1588 575 1546 588 q 1672 542 1631 563 q 1747 488 1714 521 q 1799 408 1779 456 q 1819 292 1819 360 l 1819 292 q 1792 154 1819 213 q 1713 58 1764 96 q 1590 0 1661 19 q 1433 -19 1519 -19 l 1433 -19 q 1294 -8 1354 -19 q 1183 24 1233 4 q 1089 72 1133 44 q 997 133 1044 100 z "},"¬":{"ha":818,"x_min":67,"x_max":739,"o":"m 739 699 l 739 289 l 544 289 l 544 528 l 67 528 l 67 699 l 739 699 z "},"¼":{"ha":1214,"x_min":-6,"x_max":1140,"o":"m 311 0 l 182 0 l 789 1018 l 917 1018 l 311 0 z m 224 1019 l 304 1019 l 304 357 l 178 357 l 178 801 l 82 710 l -6 801 l 224 1019 z m 1060 258 l 1140 258 l 1140 147 l 1060 147 l 1060 0 l 933 0 l 933 147 l 617 147 l 617 256 l 964 663 l 1060 663 l 1060 258 z m 933 258 l 933 449 l 778 258 l 933 258 z "},"½":{"ha":1214,"x_min":-6,"x_max":1172,"o":"m 311 0 l 182 0 l 789 1018 l 917 1018 l 311 0 z m 224 1019 l 304 1019 l 304 357 l 178 357 l 178 801 l 82 710 l -6 801 l 224 1019 z m 879 111 l 1172 111 l 1172 0 l 714 0 l 714 126 q 761 165 732 140 q 824 218 790 190 q 890 274 857 246 q 949 324 924 303 l 949 324 q 997 368 979 349 q 1024 404 1015 388 q 1035 436 1033 421 q 1038 467 1038 451 l 1038 467 q 1028 511 1038 493 q 1003 540 1018 529 q 971 555 989 550 q 935 560 953 560 l 935 560 q 883 544 904 560 q 850 510 863 529 q 832 475 838 492 q 825 454 826 458 l 825 454 l 825 456 l 703 488 q 726 543 710 511 q 772 603 743 575 q 840 652 800 632 q 935 672 881 672 l 935 672 q 1037 654 993 672 q 1108 607 1081 636 q 1150 541 1136 578 q 1164 467 1164 504 l 1164 467 q 1126 337 1164 390 q 1024 231 1089 283 l 1024 231 q 958 176 1000 210 q 879 111 917 143 l 879 111 z "},"¾":{"ha":1331,"x_min":17,"x_max":1279,"o":"m 1199 258 l 1279 258 l 1279 147 l 1199 147 l 1199 0 l 1072 0 l 1072 147 l 756 147 l 756 256 l 1103 663 l 1199 663 l 1199 258 z m 369 681 l 369 681 q 406 663 388 674 q 441 635 425 653 q 467 590 457 617 q 476 526 476 564 l 476 526 q 469 476 476 508 q 438 413 463 444 l 438 413 q 394 374 418 389 q 345 350 371 358 q 294 338 319 342 q 246 335 268 335 l 246 335 q 147 354 188 335 q 80 402 107 374 q 38 463 53 431 q 17 518 24 494 l 17 518 l 138 553 q 142 532 139 549 q 157 496 146 515 q 189 461 168 476 q 246 446 210 446 l 246 446 q 324 470 299 446 q 350 526 350 494 l 350 526 q 339 582 350 561 q 307 614 328 603 q 255 630 286 625 q 183 636 224 635 l 183 636 l 183 733 q 253 738 222 735 q 306 751 285 742 q 339 780 328 761 q 350 832 350 799 l 350 832 q 324 888 350 864 q 246 911 299 911 l 246 911 q 189 896 210 911 q 157 862 168 881 q 142 826 146 843 q 138 806 139 808 l 138 806 l 17 840 q 38 896 24 864 q 80 956 53 928 q 147 1004 107 985 q 246 1024 188 1024 l 246 1024 q 353 1006 310 1024 q 424 961 397 989 q 464 899 451 933 q 476 832 476 865 l 476 832 q 467 770 476 796 q 442 727 457 744 q 407 699 426 710 q 369 681 388 689 z m 450 0 l 321 0 l 928 1018 l 1056 1018 l 450 0 z m 1072 258 l 1072 449 l 917 258 l 1072 258 z "},"¹":{"ha":397,"x_min":-6,"x_max":304,"o":"m 224 1158 l 304 1158 l 304 496 l 178 496 l 178 940 l 82 849 l -6 940 l 224 1158 z "},"²":{"ha":553,"x_min":36,"x_max":506,"o":"m 213 610 l 506 610 l 506 499 l 47 499 l 47 625 q 94 664 65 639 q 157 717 124 689 q 224 773 190 744 q 282 822 257 801 l 282 822 q 331 867 313 847 q 358 903 349 886 q 369 935 367 919 q 371 965 371 950 l 371 965 q 361 1010 371 992 q 337 1038 351 1028 q 304 1053 322 1049 q 268 1058 286 1058 l 268 1058 q 217 1043 238 1058 q 183 1009 196 1028 q 165 974 171 990 q 158 953 160 957 l 158 953 l 158 954 l 36 986 q 60 1042 43 1010 q 105 1102 76 1074 q 174 1151 133 1131 q 268 1171 214 1171 l 268 1171 q 370 1153 326 1171 q 442 1106 414 1135 q 483 1040 469 1076 q 497 965 497 1003 l 497 965 q 460 835 497 889 q 357 729 422 782 l 357 729 q 292 675 333 708 q 213 610 250 642 l 213 610 z "},"³":{"ha":533,"x_min":21,"x_max":481,"o":"m 374 826 l 374 826 q 410 809 392 819 q 445 781 429 799 q 471 736 461 763 q 481 672 481 710 l 481 672 q 474 622 481 654 q 442 558 467 590 l 442 558 q 399 519 422 535 q 349 496 375 504 q 298 484 324 488 q 250 481 272 481 l 250 481 q 151 500 192 481 q 84 548 111 519 q 42 608 57 576 q 21 664 28 640 l 21 664 l 142 699 q 147 678 143 694 q 161 642 150 661 q 193 607 172 622 q 250 592 214 592 l 250 592 q 328 616 303 592 q 354 672 354 640 l 354 672 q 343 728 354 707 q 311 760 332 749 q 259 776 290 771 q 188 782 228 781 l 188 782 l 188 879 q 258 884 226 881 q 310 897 289 888 q 343 926 332 907 q 354 978 354 944 l 354 978 q 328 1033 354 1010 q 250 1057 303 1057 l 250 1057 q 193 1042 214 1057 q 161 1008 172 1026 q 147 972 150 989 q 142 951 143 954 l 142 951 l 21 986 q 42 1042 28 1010 q 84 1102 57 1074 q 151 1150 111 1131 q 250 1169 192 1169 l 250 1169 q 358 1152 314 1169 q 428 1107 401 1135 q 468 1045 456 1079 q 481 978 481 1011 l 481 978 q 471 916 481 942 q 446 873 461 890 q 411 845 431 856 q 374 826 392 835 z "},"×":{"ha":700,"x_min":35,"x_max":660,"o":"m 526 840 l 660 708 l 479 529 l 658 349 l 525 217 l 346 396 l 168 218 l 36 351 l 214 529 l 35 707 l 168 839 l 346 663 l 526 840 z "},"­":{"ha":1157,"x_min":null,"x_max":null,"o":""},"´":{"ha":408,"x_min":42,"x_max":365,"o":"m 42 1071 l 204 1281 l 365 1211 l 179 1071 l 42 1071 z "},"˘":{"ha":594,"x_min":43,"x_max":553,"o":"m 426 1278 l 553 1278 q 469 1124 538 1182 q 299 1065 401 1065 l 299 1065 q 205 1081 249 1065 q 128 1124 161 1096 q 72 1192 94 1153 q 43 1278 50 1231 l 43 1278 l 169 1278 q 221 1209 183 1229 q 299 1189 258 1189 l 299 1189 q 385 1215 356 1189 q 426 1278 415 1242 l 426 1278 z "},"¨":{"ha":575,"x_min":51,"x_max":524,"o":"m 51 1176 l 51 1176 q 79 1244 51 1217 q 147 1271 107 1271 l 147 1271 q 214 1244 188 1271 q 240 1176 240 1217 l 240 1176 q 214 1110 240 1136 q 147 1083 188 1083 l 147 1083 q 79 1110 107 1083 q 51 1176 51 1136 z m 335 1176 l 335 1176 q 362 1244 335 1217 q 429 1271 389 1271 l 429 1271 q 497 1244 469 1271 q 524 1176 524 1217 l 524 1176 q 497 1110 524 1136 q 429 1083 469 1083 l 429 1083 q 362 1110 389 1083 q 335 1176 335 1136 z "},"ˆ":{"ha":599,"x_min":43,"x_max":546,"o":"m 43 1067 l 213 1281 l 375 1281 l 546 1068 l 390 1068 l 292 1165 l 199 1067 l 43 1067 z "},"ˇ":{"ha":600,"x_min":44,"x_max":547,"o":"m 547 1281 l 378 1067 l 215 1067 l 44 1281 l 200 1281 l 299 1183 l 392 1281 l 547 1281 z "},"¯":{"ha":549,"x_min":44,"x_max":500,"o":"m 500 1242 l 500 1114 l 44 1114 l 44 1242 l 500 1242 z "},"˚":{"ha":386,"x_min":43,"x_max":342,"o":"m 193 974 l 193 974 q 134 985 161 974 q 87 1017 107 997 q 55 1065 67 1038 q 43 1124 43 1092 l 43 1124 q 55 1181 43 1154 q 87 1228 67 1208 q 134 1260 107 1249 q 193 1272 161 1272 l 193 1272 q 251 1260 224 1272 q 298 1228 278 1249 q 330 1181 318 1208 q 342 1124 342 1154 l 342 1124 q 330 1065 342 1092 q 298 1017 318 1038 q 251 985 278 997 q 193 974 224 974 z m 193 1179 l 193 1179 q 153 1163 169 1179 q 136 1124 136 1147 l 136 1124 q 153 1083 136 1100 q 193 1067 169 1067 l 193 1067 q 233 1083 217 1067 q 249 1124 249 1100 l 249 1124 q 233 1163 249 1147 q 193 1179 217 1179 z "},"˝":{"ha":664,"x_min":35,"x_max":621,"o":"m 297 1071 l 460 1281 l 621 1211 l 433 1071 l 297 1071 z m 35 1071 l 197 1281 l 358 1211 l 171 1071 l 35 1071 z "},"˙":{"ha":293,"x_min":49,"x_max":238,"o":"m 49 1176 l 49 1176 q 76 1244 49 1217 q 144 1271 104 1271 l 144 1271 q 211 1244 185 1271 q 238 1176 238 1217 l 238 1176 q 211 1110 238 1136 q 144 1083 185 1083 l 144 1083 q 76 1110 104 1083 q 49 1176 49 1136 z "},"˛":{"ha":386,"x_min":42,"x_max":360,"o":"m 236 -262 l 236 -262 q 114 -222 163 -262 l 114 -222 q 72 -172 89 -201 q 48 -107 54 -142 q 49 -35 42 -72 q 82 36 57 1 l 82 36 q 119 74 97 57 q 166 101 142 90 q 213 118 190 113 q 253 125 236 124 l 253 125 l 260 0 q 215 -11 236 0 q 183 -37 193 -22 l 183 -37 q 171 -69 172 -54 q 173 -94 169 -83 q 182 -114 176 -106 q 192 -126 188 -122 l 192 -126 q 222 -138 204 -136 q 256 -137 239 -140 q 288 -130 274 -135 q 308 -122 303 -125 l 308 -122 l 360 -236 q 335 -246 357 -237 q 279 -260 313 -254 l 279 -260 q 258 -262 268 -262 q 236 -262 247 -262 z "},"¸":{"ha":319,"x_min":25,"x_max":288,"o":"m 211 -39 l 211 -39 q 282 -150 288 -65 l 282 -150 q 260 -216 279 -193 q 218 -250 242 -239 q 172 -263 194 -261 q 140 -265 150 -265 l 140 -265 q 90 -259 111 -265 q 54 -246 69 -253 l 54 -246 q 25 -226 38 -237 l 25 -226 l 60 -158 q 76 -169 65 -164 l 76 -169 q 101 -178 86 -174 q 140 -181 117 -182 l 140 -181 q 170 -171 157 -181 q 183 -142 183 -161 l 183 -142 q 167 -117 183 -122 q 138 -111 151 -111 l 138 -111 q 109 -115 122 -112 q 86 -121 96 -118 l 86 -121 q 65 -129 75 -125 l 65 -129 l 46 -97 l 90 15 l 179 15 l 156 -35 q 176 -33 160 -33 q 211 -39 192 -32 z "},"æ":{"ha":1475,"x_min":-17,"x_max":1385,"o":"m 1385 843 l 831 843 l 831 592 l 1322 592 l 1322 414 l 831 414 l 831 176 l 1385 176 l 1385 0 l 636 0 l 636 171 l 315 171 l 203 0 l -17 0 l 654 1018 l 1385 1018 l 1385 843 z m 636 343 l 636 672 l 428 343 l 636 343 z "},"œ":{"ha":1611,"x_min":60,"x_max":1521,"o":"m 1521 843 l 967 843 l 967 590 l 1458 590 l 1458 414 l 967 414 l 967 175 l 1521 175 l 1521 0 l 774 0 l 774 15 q 683 -10 729 -1 q 588 -19 636 -19 l 588 -19 q 382 22 478 -19 q 215 135 286 64 q 101 303 143 207 q 60 508 60 400 l 60 508 q 101 713 60 617 q 215 881 143 810 q 382 994 286 953 q 588 1036 478 1036 l 588 1036 q 683 1027 636 1036 q 774 1001 729 1018 l 774 1001 l 774 1017 l 1521 1017 l 1521 843 z m 588 154 l 588 154 q 704 177 664 154 q 774 232 744 200 l 774 232 l 774 785 q 747 813 763 799 q 708 838 731 826 q 656 856 686 849 q 588 863 626 863 l 588 863 q 458 840 518 863 q 352 772 397 817 q 281 660 307 726 q 254 508 254 594 l 254 508 q 281 360 254 425 q 352 249 307 294 q 458 178 397 203 q 588 154 518 154 z "},"Ø":{"ha":1175,"x_min":60,"x_max":1114,"o":"m 294 68 l 206 -32 l 100 60 l 189 161 q 94 320 128 232 q 60 508 60 408 l 60 508 q 101 713 60 617 q 215 881 143 810 q 382 994 286 953 q 586 1036 478 1036 l 586 1036 q 742 1013 668 1036 q 881 946 817 989 l 881 946 l 965 1043 l 1071 950 l 985 853 q 1080 694 1046 782 q 1114 508 1114 607 l 1114 508 q 1072 303 1114 399 q 959 135 1031 207 q 792 22 888 64 q 586 -19 696 -19 l 586 -19 q 431 3 504 -19 q 294 68 357 26 l 294 68 z m 586 854 l 586 854 q 456 826 517 854 q 351 750 396 797 q 279 640 306 703 q 253 508 253 576 l 253 508 q 269 401 253 453 q 317 307 286 350 l 317 307 l 756 804 q 586 854 678 854 z m 586 161 l 586 161 q 716 190 656 161 q 822 266 776 218 q 893 376 867 314 q 919 508 919 439 l 919 508 q 903 613 919 563 q 857 707 886 664 l 857 707 l 418 210 q 498 174 456 186 q 586 161 540 161 z "},"a":{"ha":1075,"x_min":8,"x_max":1067,"o":"m 219 0 l 8 0 l 528 1015 l 547 1015 l 1067 0 l 856 0 l 776 160 l 297 160 l 219 0 z m 538 636 l 392 329 l 682 329 l 538 636 z "},"b":{"ha":965,"x_min":111,"x_max":897,"o":"m 856 735 l 856 735 q 843 669 856 704 q 809 606 831 635 q 757 556 788 576 q 690 535 726 536 l 690 535 q 765 513 728 532 q 831 463 801 494 q 878 389 860 431 q 897 300 897 347 l 897 300 q 872 159 897 217 q 804 66 847 101 q 703 15 761 31 q 581 0 646 0 l 581 0 l 111 0 l 111 1017 l 558 1017 q 674 1005 619 1017 q 768 962 728 993 q 832 876 808 931 q 856 735 856 821 z m 306 172 l 581 172 q 628 184 606 172 q 667 216 650 196 q 693 260 683 236 q 703 310 703 285 l 703 310 q 665 396 703 361 q 560 431 626 431 l 560 431 l 306 431 l 306 172 z m 306 844 l 306 604 l 544 604 q 595 615 574 604 q 631 644 617 626 q 653 685 646 663 q 661 731 661 708 l 661 731 q 653 774 661 753 q 631 810 644 794 q 598 835 617 825 q 558 844 579 844 l 558 844 l 306 844 z "},"c":{"ha":1081,"x_min":56,"x_max":1042,"o":"m 860 324 l 1042 250 q 960 140 1008 189 q 852 55 911 90 q 724 0 793 19 q 582 -19 656 -19 l 582 -19 q 378 22 474 -19 q 210 135 282 64 q 97 303 139 207 q 56 507 56 399 l 56 507 q 97 711 56 615 q 210 878 139 807 q 378 992 282 950 q 582 1033 474 1033 l 582 1033 q 724 1014 656 1033 q 852 959 793 994 q 960 874 911 924 q 1042 765 1008 825 l 1042 765 l 860 692 q 808 754 838 725 q 742 806 778 783 q 665 840 706 828 q 582 853 625 853 l 582 853 q 452 824 513 853 q 347 749 392 796 q 276 638 303 701 q 250 507 250 575 l 250 507 q 276 375 250 438 q 347 265 303 313 q 452 190 392 218 q 582 161 513 161 l 582 161 q 665 174 625 161 q 742 208 706 186 q 808 260 778 231 q 860 324 838 290 l 860 324 z "},"d":{"ha":1092,"x_min":111,"x_max":1022,"o":"m 513 0 l 513 0 l 111 0 l 111 1017 l 513 1017 q 871 889 731 1017 l 871 889 q 984 724 946 821 q 1022 508 1022 628 l 1022 508 q 984 291 1022 388 q 871 126 946 194 l 871 126 q 712 32 803 64 q 513 0 621 0 z m 306 842 l 306 172 l 513 172 q 622 185 567 172 q 723 234 678 197 q 797 336 768 271 q 826 507 826 401 l 826 507 q 797 678 826 613 q 722 781 768 744 q 621 829 676 817 q 513 842 565 842 l 513 842 l 306 842 z "},"e":{"ha":949,"x_min":111,"x_max":858,"o":"m 858 844 l 304 844 l 304 590 l 796 590 l 796 414 l 304 414 l 304 175 l 858 175 l 858 0 l 111 0 l 111 1017 l 858 1017 l 858 844 z "},"f":{"ha":906,"x_min":111,"x_max":858,"o":"m 858 843 l 306 843 l 306 593 l 796 593 l 796 414 l 306 414 l 306 0 l 111 0 l 111 1017 l 858 1017 l 858 843 z "},"g":{"ha":1150,"x_min":56,"x_max":1097,"o":"m 511 556 l 1097 556 q 1096 501 1096 526 l 1096 501 q 1094 458 1094 479 q 1093 425 1094 436 l 1093 425 q 1041 247 1085 329 q 928 106 997 165 q 770 14 860 47 q 582 -19 681 -19 l 582 -19 q 378 22 474 -19 q 210 135 282 64 q 97 303 139 207 q 56 507 56 399 l 56 507 q 97 712 56 615 q 210 880 139 808 q 378 993 282 951 q 582 1035 474 1035 l 582 1035 q 834 971 719 1035 q 1019 800 949 907 l 1019 800 l 853 699 q 737 808 808 764 q 582 853 665 853 l 582 853 q 452 824 513 853 q 347 749 392 796 q 275 638 301 701 q 249 507 249 575 l 249 507 q 275 375 249 438 q 347 265 301 313 q 452 190 392 218 q 582 161 513 161 l 582 161 q 683 177 635 161 q 772 222 732 193 q 842 292 813 251 q 886 381 872 332 l 886 381 l 511 381 l 511 556 z "},"h":{"ha":1111,"x_min":111,"x_max":1000,"o":"m 807 1017 l 1000 1017 l 1000 0 l 807 0 l 807 404 l 304 404 l 304 0 l 111 0 l 111 1017 l 304 1017 l 304 578 l 807 578 l 807 1017 z "},"i":{"ha":472,"x_min":139,"x_max":333,"o":"m 333 1015 l 333 0 l 139 0 l 139 1015 l 333 1015 z "},"j":{"ha":846,"x_min":25,"x_max":739,"o":"m 544 1015 l 739 1015 l 739 378 q 712 215 739 289 q 635 90 685 142 q 517 9 586 38 q 363 -19 447 -19 l 363 -19 q 156 36 243 -19 q 25 190 69 92 l 25 190 l 201 269 q 224 230 210 250 q 257 194 238 210 q 302 167 276 178 q 363 157 328 157 l 363 157 q 458 181 422 157 q 513 239 493 204 q 538 311 532 274 q 544 378 544 349 l 544 378 l 544 1015 z "},"k":{"ha":1021,"x_min":111,"x_max":989,"o":"m 989 0 l 732 0 l 306 463 l 306 0 l 111 0 l 111 1017 l 306 1017 l 306 500 l 710 1015 l 949 1015 l 531 490 l 989 0 z "},"l":{"ha":854,"x_min":111,"x_max":843,"o":"m 306 172 l 843 172 l 843 0 l 111 0 l 111 1017 l 306 1017 l 306 172 z "},"m":{"ha":1247,"x_min":111,"x_max":1135,"o":"m 1122 1015 l 1135 1015 l 1135 0 l 940 0 l 940 514 l 622 132 l 306 514 l 306 0 l 111 0 l 111 1015 l 124 1015 l 622 429 l 1122 1015 z "},"n":{"ha":1106,"x_min":111,"x_max":994,"o":"m 994 0 l 974 0 l 304 604 l 304 0 l 111 0 l 111 1015 l 132 1015 l 800 401 l 800 1015 l 994 1015 l 994 0 z "},"o":{"ha":1175,"x_min":60,"x_max":1114,"o":"m 586 -19 l 586 -19 q 382 22 478 -19 q 215 135 286 64 q 101 303 143 207 q 60 508 60 399 l 60 508 q 101 713 60 617 q 215 881 143 810 q 382 994 286 953 q 586 1036 478 1036 l 586 1036 q 792 994 696 1036 q 959 881 888 953 q 1072 713 1031 810 q 1114 508 1114 617 l 1114 508 q 1072 303 1114 399 q 959 135 1031 207 q 792 22 888 64 q 586 -19 696 -19 z m 586 854 l 586 854 q 456 826 517 854 q 351 750 396 797 q 279 640 306 703 q 253 508 253 576 l 253 508 q 279 376 253 439 q 351 266 306 314 q 456 190 396 218 q 586 161 517 161 l 586 161 q 716 190 656 161 q 822 266 776 218 q 893 376 867 314 q 919 508 919 439 l 919 508 q 893 640 919 576 q 822 750 867 703 q 716 826 776 797 q 586 854 656 854 z "},"p":{"ha":942,"x_min":111,"x_max":925,"o":"m 111 1017 l 564 1017 q 705 988 639 1017 q 819 911 771 960 q 897 797 868 863 q 925 656 925 731 l 925 656 q 900 517 925 581 q 826 405 875 453 q 703 330 778 357 q 532 303 629 303 l 532 303 l 306 303 l 306 0 l 111 0 l 111 1017 z m 306 478 l 564 478 q 639 492 607 478 q 691 532 671 507 q 721 589 711 557 q 731 656 731 621 l 731 656 q 718 724 731 690 q 682 785 706 758 q 624 828 658 811 q 543 844 589 844 l 543 844 l 306 844 l 306 478 z "},"q":{"ha":1149,"x_min":60,"x_max":1115,"o":"m 899 178 l 1115 178 l 1115 -1 l 610 -1 q 365 40 468 -1 q 193 151 261 81 q 92 315 125 221 q 60 517 60 410 l 60 517 q 101 718 60 624 q 212 883 142 813 q 376 994 282 953 q 576 1035 469 1035 l 576 1035 q 778 994 683 1035 q 942 883 872 953 q 1053 718 1013 813 q 1094 517 1094 624 l 1094 517 q 1084 422 1094 471 q 1050 328 1074 374 q 990 243 1026 282 q 899 178 953 204 l 899 178 z m 253 517 l 253 517 q 278 390 253 450 q 348 285 304 331 q 451 214 392 240 q 576 188 510 188 l 576 188 q 702 214 643 188 q 805 285 761 240 q 874 390 849 331 q 900 517 900 450 l 900 517 q 874 644 900 583 q 805 749 849 704 q 702 819 761 793 q 576 846 643 846 l 576 846 q 451 819 510 846 q 348 749 392 793 q 278 644 304 704 q 253 517 253 583 z "},"r":{"ha":1000,"x_min":111,"x_max":965,"o":"m 304 324 l 304 0 l 111 0 l 111 1017 l 572 1017 q 715 991 650 1017 q 825 919 779 965 q 897 808 871 872 q 922 667 922 743 l 922 667 q 865 465 922 551 q 711 342 807 379 l 711 342 q 965 0 840 172 l 965 0 l 733 0 q 614 160 672 79 q 497 324 556 240 l 497 324 l 304 324 z m 304 844 l 304 496 l 572 496 q 627 506 599 496 q 678 538 656 517 q 715 592 700 560 q 729 667 729 624 l 729 667 q 724 719 729 689 q 701 778 718 750 q 654 825 685 806 q 572 844 624 844 l 572 844 l 304 844 z "},"s":{"ha":944,"x_min":71,"x_max":893,"o":"m 71 133 l 71 133 l 176 289 q 334 198 253 236 q 504 160 415 160 l 504 160 q 588 172 551 160 q 649 202 624 183 q 686 245 674 221 q 699 293 699 269 l 699 293 q 680 345 699 324 q 630 381 661 367 q 556 404 599 394 q 468 422 514 414 l 468 422 q 397 435 438 428 q 314 456 357 443 q 229 491 271 469 q 154 545 188 513 q 101 623 121 578 q 81 729 81 668 l 81 729 q 117 877 81 818 q 209 970 153 936 q 334 1018 265 1004 q 467 1032 403 1032 l 467 1032 q 581 1024 531 1032 q 674 999 631 1015 q 758 959 717 983 q 846 901 799 935 l 846 901 l 738 749 q 599 825 665 799 q 458 851 532 851 l 458 851 q 401 845 433 851 q 341 825 369 839 q 294 790 313 811 q 275 738 275 768 l 275 738 q 297 686 275 707 q 354 651 319 665 q 431 628 389 638 q 511 608 472 618 l 511 608 q 580 594 540 601 q 662 575 619 588 q 746 542 704 563 q 820 488 788 521 q 873 408 853 456 q 893 292 893 360 l 893 292 q 865 154 893 213 q 786 58 838 96 q 664 0 735 19 q 507 -19 593 -19 l 507 -19 q 367 -8 428 -19 q 257 24 307 4 q 163 72 207 44 q 71 133 118 100 z "},"t":{"ha":864,"x_min":65,"x_max":842,"o":"m 842 1017 l 842 844 l 551 844 l 551 0 l 357 0 l 357 844 l 65 844 l 65 1017 l 842 1017 z "},"u":{"ha":1094,"x_min":111,"x_max":983,"o":"m 547 -18 l 547 -18 q 368 13 449 -18 q 231 99 288 43 q 142 233 174 154 q 111 410 111 313 l 111 410 l 111 1015 l 306 1015 l 306 410 q 331 283 306 333 q 392 204 356 233 q 472 164 429 175 q 547 153 514 153 l 547 153 q 623 164 581 153 q 702 204 665 175 q 764 283 739 233 q 789 410 789 333 l 789 410 l 789 1015 l 983 1015 l 983 410 q 953 233 983 313 q 865 99 922 154 q 728 13 808 43 q 547 -18 647 -18 z "},"v":{"ha":1001,"x_min":18,"x_max":994,"o":"m 779 1015 l 994 1015 l 511 0 l 500 0 l 18 1015 l 232 1015 l 506 426 l 779 1015 z "},"w":{"ha":1376,"x_min":18,"x_max":1363,"o":"m 1156 1015 l 1363 1015 l 983 0 l 964 0 l 689 592 l 411 -1 l 393 -1 l 18 1015 l 225 1015 l 424 458 l 682 1015 l 694 1015 l 953 457 l 1156 1015 z "},"x":{"ha":1047,"x_min":25,"x_max":1038,"o":"m 33 0 l 411 503 l 25 1015 l 268 1015 l 532 650 l 796 1015 l 1038 1015 l 653 503 l 1031 0 l 788 0 l 532 354 l 276 0 l 33 0 z "},"y":{"ha":985,"x_min":11,"x_max":978,"o":"m 751 1015 l 978 1015 q 888 869 939 951 q 785 702 838 788 q 681 534 732 617 q 590 385 629 451 l 590 385 l 590 0 l 396 0 l 396 385 q 204 700 306 543 q 11 1015 103 857 l 11 1015 l 238 1015 q 365 800 300 911 q 493 585 431 689 l 493 585 q 557 689 524 633 q 624 801 590 744 q 690 912 657 857 q 751 1015 722 967 l 751 1015 z "},"z":{"ha":975,"x_min":29,"x_max":938,"o":"m 938 1015 l 938 992 l 371 181 l 918 181 l 918 0 l 29 0 l 29 22 l 597 836 l 72 836 l 72 1015 l 938 1015 z "},"À":{"ha":1075,"x_min":8,"x_max":1067,"o":"m 8 0 l 219 0 l 297 160 l 776 160 l 856 0 l 1067 0 l 547 1015 l 528 1015 l 8 0 z m 392 329 l 538 636 l 682 329 l 392 329 z m 439 1275 l 601 1065 l 465 1065 l 279 1206 l 439 1275 z "},"Á":{"ha":1075,"x_min":8,"x_max":1067,"o":"m 219 0 l 8 0 l 528 1015 l 547 1015 l 1067 0 l 856 0 l 776 160 l 297 160 l 219 0 z m 538 636 l 392 329 l 682 329 l 538 636 z m 472 1065 l 635 1275 l 796 1206 l 610 1065 l 472 1065 z "},"Â":{"ha":1075,"x_min":8,"x_max":1067,"o":"m 219 0 l 8 0 l 528 1015 l 547 1015 l 1067 0 l 856 0 l 776 160 l 297 160 l 219 0 z m 286 1061 l 456 1275 l 618 1275 l 789 1063 l 633 1063 l 535 1160 l 442 1061 l 286 1061 z m 538 636 l 392 329 l 682 329 l 538 636 z "},"Ã":{"ha":1075,"x_min":8,"x_max":1067,"o":"m 8 0 l 219 0 l 297 160 l 776 160 l 856 0 l 1067 0 l 547 1015 l 528 1015 l 8 0 z m 635 1054 l 635 1054 l 629 1054 q 548 1077 578 1057 q 497 1117 518 1097 l 497 1117 q 470 1139 482 1132 q 436 1146 458 1146 l 436 1146 q 410 1134 421 1146 q 391 1108 399 1122 q 378 1081 383 1093 q 374 1069 374 1069 l 374 1069 l 260 1101 q 278 1153 265 1124 q 313 1208 292 1182 q 365 1251 335 1233 q 433 1269 394 1268 l 433 1269 q 523 1249 490 1271 q 576 1208 556 1228 l 576 1208 q 603 1187 592 1193 q 633 1179 614 1181 l 633 1179 q 663 1188 650 1178 q 683 1210 675 1199 l 683 1210 q 701 1242 693 1224 l 701 1242 l 814 1201 q 797 1164 808 1186 q 767 1119 786 1142 l 767 1119 q 706 1071 739 1088 q 635 1054 672 1054 z m 392 329 l 538 636 l 682 329 l 392 329 z "},"Ä":{"ha":1075,"x_min":8,"x_max":1067,"o":"m 8 0 l 219 0 l 297 160 l 776 160 l 856 0 l 1067 0 l 547 1015 l 528 1015 l 8 0 z m 392 329 l 538 636 l 682 329 l 392 329 z m 301 1157 l 301 1157 q 329 1224 301 1197 q 397 1251 357 1251 l 397 1251 q 464 1224 438 1251 q 490 1157 490 1197 l 490 1157 q 464 1090 490 1117 q 397 1064 438 1064 l 397 1064 q 329 1090 357 1064 q 301 1157 301 1117 z m 585 1157 l 585 1157 q 612 1224 585 1197 q 679 1251 639 1251 l 679 1251 q 747 1224 719 1251 q 774 1157 774 1197 l 774 1157 q 747 1090 774 1117 q 679 1064 719 1064 l 679 1064 q 612 1090 639 1064 q 585 1157 585 1117 z "},"Å":{"ha":1075,"x_min":8,"x_max":1067,"o":"m 219 0 l 8 0 l 506 971 q 421 1023 454 982 q 388 1118 388 1064 l 388 1118 q 399 1176 388 1149 q 431 1223 411 1203 q 478 1255 451 1243 q 538 1267 506 1267 l 538 1267 q 595 1255 568 1267 q 642 1223 622 1243 q 674 1176 663 1203 q 686 1118 686 1149 l 686 1118 q 653 1023 686 1064 q 569 971 619 982 l 569 971 l 1067 0 l 856 0 l 776 160 l 297 160 l 219 0 z m 538 636 l 392 329 l 682 329 l 538 636 z m 538 1174 l 538 1174 q 497 1158 514 1174 q 481 1118 481 1142 l 481 1118 q 497 1078 481 1094 q 538 1061 514 1061 l 538 1061 q 577 1078 561 1061 q 593 1118 593 1094 l 593 1118 q 577 1158 593 1142 q 538 1174 561 1174 z "},"Ç":{"ha":1081,"x_min":56,"x_max":1042,"o":"m 651 -65 l 651 -65 q 722 -176 728 -92 l 722 -176 q 701 -242 719 -219 q 658 -276 682 -265 q 613 -290 635 -287 q 581 -292 590 -292 l 581 -292 q 531 -285 551 -292 q 494 -272 510 -279 l 494 -272 q 465 -253 478 -264 l 465 -253 l 500 -185 q 517 -196 506 -190 l 517 -196 q 542 -204 526 -200 q 581 -207 557 -208 l 581 -207 q 610 -197 597 -207 q 624 -168 624 -187 l 624 -168 q 608 -143 624 -149 q 578 -137 592 -137 l 578 -137 q 549 -142 563 -139 q 526 -147 536 -144 l 526 -147 q 506 -156 515 -151 l 506 -156 l 486 -124 l 528 -17 q 342 38 428 -7 q 192 153 256 83 q 92 314 129 224 q 56 507 56 404 l 56 507 q 97 711 56 615 q 210 878 139 807 q 378 992 282 950 q 582 1033 474 1033 l 582 1033 q 724 1014 656 1033 q 852 959 793 994 q 960 874 911 924 q 1042 765 1008 825 l 1042 765 l 860 692 q 808 754 838 725 q 742 806 778 783 q 665 840 706 828 q 582 853 625 853 l 582 853 q 452 824 513 853 q 347 749 392 796 q 276 638 303 701 q 250 507 250 575 l 250 507 q 276 375 250 438 q 347 265 303 313 q 452 190 392 218 q 582 161 513 161 l 582 161 q 665 174 625 161 q 742 208 706 186 q 808 260 778 231 q 860 324 838 290 l 860 324 l 1042 250 q 965 146 1010 193 q 866 64 921 99 q 747 8 811 29 q 615 -18 683 -14 l 615 -18 l 596 -61 q 616 -59 600 -60 q 651 -65 632 -58 z "},"Š":{"ha":944,"x_min":71,"x_max":893,"o":"m 71 133 l 71 133 l 176 289 q 334 198 253 236 q 504 160 415 160 l 504 160 q 588 172 551 160 q 649 202 624 183 q 686 245 674 221 q 699 293 699 269 l 699 293 q 680 345 699 324 q 630 381 661 367 q 556 404 599 394 q 468 422 514 414 l 468 422 q 397 435 438 428 q 314 456 357 443 q 229 491 271 469 q 154 545 188 513 q 101 623 121 578 q 81 729 81 668 l 81 729 q 117 877 81 818 q 209 970 153 936 q 334 1018 265 1004 q 467 1032 403 1032 l 467 1032 q 581 1024 531 1032 q 674 999 631 1015 q 758 959 717 983 q 846 901 799 935 l 846 901 l 738 749 q 599 825 665 799 q 458 851 532 851 l 458 851 q 401 845 433 851 q 341 825 369 839 q 294 790 313 811 q 275 738 275 768 l 275 738 q 297 686 275 707 q 354 651 319 665 q 431 628 389 638 q 511 608 472 618 l 511 608 q 580 594 540 601 q 662 575 619 588 q 746 542 704 563 q 820 488 788 521 q 873 408 853 456 q 893 292 893 360 l 893 292 q 865 154 893 213 q 786 58 838 96 q 664 0 735 19 q 507 -19 593 -19 l 507 -19 q 367 -8 428 -19 q 257 24 307 4 q 163 72 207 44 q 71 133 118 100 z m 724 1275 l 554 1061 l 392 1061 l 221 1275 l 376 1275 l 475 1178 l 568 1275 l 724 1275 z "},"Ž":{"ha":975,"x_min":29,"x_max":938,"o":"m 938 1015 l 938 992 l 371 181 l 918 181 l 918 0 l 29 0 l 29 22 l 597 836 l 72 836 l 72 1015 l 938 1015 z m 739 1275 l 569 1061 l 407 1061 l 236 1275 l 392 1275 l 490 1178 l 583 1275 l 739 1275 z "},"Ÿ":{"ha":985,"x_min":11,"x_max":978,"o":"m 978 1015 l 751 1015 q 690 912 722 967 q 624 801 657 857 q 557 689 590 744 q 493 585 524 633 l 493 585 q 365 800 431 689 q 238 1015 300 911 l 238 1015 l 11 1015 q 204 700 103 857 q 396 385 306 543 l 396 385 l 396 0 l 590 0 l 590 385 q 681 534 629 451 q 785 702 732 617 q 888 869 838 788 q 978 1015 939 951 l 978 1015 z m 258 1171 l 258 1171 q 286 1238 258 1211 q 354 1265 314 1265 l 354 1265 q 421 1238 394 1265 q 447 1171 447 1211 l 447 1171 q 421 1104 447 1131 q 354 1078 394 1078 l 354 1078 q 286 1104 314 1078 q 258 1171 258 1131 z m 542 1171 l 542 1171 q 569 1238 542 1211 q 636 1265 596 1265 l 636 1265 q 703 1238 676 1265 q 731 1171 731 1211 l 731 1171 q 703 1104 731 1131 q 636 1078 676 1078 l 636 1078 q 569 1104 596 1078 q 542 1171 542 1131 z "},"È":{"ha":949,"x_min":111,"x_max":858,"o":"m 304 844 l 858 844 l 858 1017 l 111 1017 l 111 0 l 858 0 l 858 175 l 304 175 l 304 414 l 796 414 l 796 590 l 304 590 l 304 844 z m 444 1275 l 607 1065 l 471 1065 l 285 1206 l 444 1275 z "},"É":{"ha":949,"x_min":111,"x_max":858,"o":"m 858 844 l 304 844 l 304 590 l 796 590 l 796 414 l 304 414 l 304 175 l 858 175 l 858 0 l 111 0 l 111 1017 l 858 1017 l 858 844 z m 354 1065 l 517 1275 l 678 1206 l 492 1065 l 354 1065 z "},"Ê":{"ha":949,"x_min":111,"x_max":858,"o":"m 858 844 l 304 844 l 304 590 l 796 590 l 796 414 l 304 414 l 304 175 l 858 175 l 858 0 l 111 0 l 111 1017 l 858 1017 l 858 844 z m 238 1061 l 407 1275 l 569 1275 l 740 1063 l 585 1063 l 486 1160 l 393 1061 l 238 1061 z "},"Ë":{"ha":949,"x_min":111,"x_max":858,"o":"m 304 844 l 858 844 l 858 1017 l 111 1017 l 111 0 l 858 0 l 858 175 l 304 175 l 304 414 l 796 414 l 796 590 l 304 590 l 304 844 z m 251 1171 l 251 1171 q 279 1238 251 1211 q 347 1265 307 1265 l 347 1265 q 414 1238 388 1265 q 440 1171 440 1211 l 440 1171 q 414 1104 440 1131 q 347 1078 388 1078 l 347 1078 q 279 1104 307 1078 q 251 1171 251 1131 z m 535 1171 l 535 1171 q 562 1238 535 1211 q 629 1265 589 1265 l 629 1265 q 697 1238 669 1265 q 724 1171 724 1211 l 724 1171 q 697 1104 724 1131 q 629 1078 669 1078 l 629 1078 q 562 1104 589 1078 q 535 1171 535 1131 z "},"Ì":{"ha":472,"x_min":8,"x_max":333,"o":"m 333 1015 l 333 0 l 139 0 l 139 1015 l 333 1015 z m 168 1275 l 331 1065 l 194 1065 l 8 1206 l 168 1275 z "},"Í":{"ha":472,"x_min":139,"x_max":463,"o":"m 333 1015 l 333 0 l 139 0 l 139 1015 l 333 1015 z m 139 1065 l 301 1275 l 463 1206 l 276 1065 l 139 1065 z "},"Î":{"ha":472,"x_min":-15,"x_max":488,"o":"m 333 1015 l 333 0 l 139 0 l 139 1015 l 333 1015 z m -15 1061 l 154 1275 l 317 1275 l 488 1063 l 332 1063 l 233 1160 l 140 1061 l -15 1061 z "},"Ï":{"ha":472,"x_min":0,"x_max":472,"o":"m 333 1015 l 333 0 l 139 0 l 139 1015 l 333 1015 z m 283 1171 l 283 1171 q 310 1238 283 1211 q 378 1265 338 1265 l 378 1265 q 445 1238 418 1265 q 472 1171 472 1211 l 472 1171 q 445 1104 472 1131 q 378 1078 418 1078 l 378 1078 q 310 1104 338 1078 q 283 1171 283 1131 z m 0 1171 l 0 1171 q 28 1238 0 1211 q 96 1265 56 1265 l 96 1265 q 163 1238 136 1265 q 189 1171 189 1211 l 189 1171 q 163 1104 189 1131 q 96 1078 136 1078 l 96 1078 q 28 1104 56 1078 q 0 1171 0 1131 z "},"Ñ":{"ha":1106,"x_min":111,"x_max":994,"o":"m 974 0 l 994 0 l 994 1015 l 800 1015 l 800 401 l 132 1015 l 111 1015 l 111 0 l 304 0 l 304 604 l 974 0 z m 636 1054 l 636 1054 l 631 1054 q 549 1077 579 1057 q 499 1117 519 1097 l 499 1117 q 472 1139 483 1132 q 438 1146 460 1146 l 438 1146 q 411 1134 422 1146 q 392 1108 400 1122 q 380 1081 385 1093 q 375 1069 375 1069 l 375 1069 l 261 1101 q 280 1153 267 1124 q 315 1208 293 1182 q 366 1251 336 1233 q 435 1269 396 1268 l 435 1269 q 524 1249 492 1271 q 578 1208 557 1228 l 578 1208 q 604 1187 593 1193 q 635 1179 615 1181 l 635 1179 q 664 1188 651 1178 q 685 1210 676 1199 l 685 1210 q 703 1242 694 1224 l 703 1242 l 815 1201 q 799 1164 810 1186 q 768 1119 788 1142 l 768 1119 q 707 1071 740 1088 q 636 1054 674 1054 z "},"Ò":{"ha":1175,"x_min":60,"x_max":1114,"o":"m 586 -19 l 586 -19 q 382 22 478 -19 q 215 135 286 64 q 101 303 143 207 q 60 508 60 399 l 60 508 q 101 713 60 617 q 215 881 143 810 q 382 994 286 953 q 586 1036 478 1036 l 586 1036 q 792 994 696 1036 q 959 881 888 953 q 1072 713 1031 810 q 1114 508 1114 617 l 1114 508 q 1072 303 1114 399 q 959 135 1031 207 q 792 22 888 64 q 586 -19 696 -19 z m 586 854 l 586 854 q 456 826 517 854 q 351 750 396 797 q 279 640 306 703 q 253 508 253 576 l 253 508 q 279 376 253 439 q 351 266 306 314 q 456 190 396 218 q 586 161 517 161 l 586 161 q 716 190 656 161 q 822 266 776 218 q 893 376 867 314 q 919 508 919 439 l 919 508 q 893 640 919 576 q 822 750 867 703 q 716 826 776 797 q 586 854 656 854 z m 531 1275 l 693 1065 l 557 1065 l 371 1206 l 531 1275 z "},"Ó":{"ha":1175,"x_min":60,"x_max":1114,"o":"m 586 -19 l 586 -19 q 382 22 478 -19 q 215 135 286 64 q 101 303 143 207 q 60 508 60 399 l 60 508 q 101 713 60 617 q 215 881 143 810 q 382 994 286 953 q 586 1036 478 1036 l 586 1036 q 792 994 696 1036 q 959 881 888 953 q 1072 713 1031 810 q 1114 508 1114 617 l 1114 508 q 1072 303 1114 399 q 959 135 1031 207 q 792 22 888 64 q 586 -19 696 -19 z m 586 854 l 586 854 q 456 826 517 854 q 351 750 396 797 q 279 640 306 703 q 253 508 253 576 l 253 508 q 279 376 253 439 q 351 266 306 314 q 456 190 396 218 q 586 161 517 161 l 586 161 q 716 190 656 161 q 822 266 776 218 q 893 376 867 314 q 919 508 919 439 l 919 508 q 893 640 919 576 q 822 750 867 703 q 716 826 776 797 q 586 854 656 854 z m 467 1065 l 629 1275 l 790 1206 l 604 1065 l 467 1065 z "},"Ô":{"ha":1175,"x_min":60,"x_max":1114,"o":"m 586 -19 l 586 -19 q 382 22 478 -19 q 215 135 286 64 q 101 303 143 207 q 60 508 60 399 l 60 508 q 101 713 60 617 q 215 881 143 810 q 382 994 286 953 q 586 1036 478 1036 l 586 1036 q 792 994 696 1036 q 959 881 888 953 q 1072 713 1031 810 q 1114 508 1114 617 l 1114 508 q 1072 303 1114 399 q 959 135 1031 207 q 792 22 888 64 q 586 -19 696 -19 z m 586 854 l 586 854 q 456 826 517 854 q 351 750 396 797 q 279 640 306 703 q 253 508 253 576 l 253 508 q 279 376 253 439 q 351 266 306 314 q 456 190 396 218 q 586 161 517 161 l 586 161 q 716 190 656 161 q 822 266 776 218 q 893 376 867 314 q 919 508 919 439 l 919 508 q 893 640 919 576 q 822 750 867 703 q 716 826 776 797 q 586 854 656 854 z m 338 1061 l 507 1275 l 669 1275 l 840 1063 l 685 1063 l 586 1160 l 493 1061 l 338 1061 z "},"Õ":{"ha":1175,"x_min":60,"x_max":1114,"o":"m 586 -19 l 586 -19 q 382 22 478 -19 q 215 135 286 64 q 101 303 143 207 q 60 508 60 399 l 60 508 q 101 713 60 617 q 215 881 143 810 q 382 994 286 953 q 586 1036 478 1036 l 586 1036 q 792 994 696 1036 q 959 881 888 953 q 1072 713 1031 810 q 1114 508 1114 617 l 1114 508 q 1072 303 1114 399 q 959 135 1031 207 q 792 22 888 64 q 586 -19 696 -19 z m 586 854 l 586 854 q 456 826 517 854 q 351 750 396 797 q 279 640 306 703 q 253 508 253 576 l 253 508 q 279 376 253 439 q 351 266 306 314 q 456 190 396 218 q 586 161 517 161 l 586 161 q 716 190 656 161 q 822 266 776 218 q 893 376 867 314 q 919 508 919 439 l 919 508 q 893 640 919 576 q 822 750 867 703 q 716 826 776 797 q 586 854 656 854 z m 685 1054 l 685 1054 l 679 1054 q 598 1077 628 1057 q 547 1117 568 1097 l 547 1117 q 520 1139 532 1132 q 486 1146 508 1146 l 486 1146 q 460 1134 471 1146 q 441 1108 449 1122 q 428 1081 433 1093 q 424 1069 424 1069 l 424 1069 l 310 1101 q 328 1153 315 1124 q 363 1208 342 1182 q 415 1251 385 1233 q 483 1269 444 1268 l 483 1269 q 573 1249 540 1271 q 626 1208 606 1228 l 626 1208 q 653 1187 642 1193 q 683 1179 664 1181 l 683 1179 q 713 1188 700 1178 q 733 1210 725 1199 l 733 1210 q 751 1242 743 1224 l 751 1242 l 864 1201 q 847 1164 858 1186 q 817 1119 836 1142 l 817 1119 q 756 1071 789 1088 q 685 1054 722 1054 z "},"Ö":{"ha":1175,"x_min":60,"x_max":1114,"o":"m 586 -19 l 586 -19 q 382 22 478 -19 q 215 135 286 64 q 101 303 143 207 q 60 508 60 399 l 60 508 q 101 713 60 617 q 215 881 143 810 q 382 994 286 953 q 586 1036 478 1036 l 586 1036 q 792 994 696 1036 q 959 881 888 953 q 1072 713 1031 810 q 1114 508 1114 617 l 1114 508 q 1072 303 1114 399 q 959 135 1031 207 q 792 22 888 64 q 586 -19 696 -19 z m 586 854 l 586 854 q 456 826 517 854 q 351 750 396 797 q 279 640 306 703 q 253 508 253 576 l 253 508 q 279 376 253 439 q 351 266 306 314 q 456 190 396 218 q 586 161 517 161 l 586 161 q 716 190 656 161 q 822 266 776 218 q 893 376 867 314 q 919 508 919 439 l 919 508 q 893 640 919 576 q 822 750 867 703 q 716 826 776 797 q 586 854 656 854 z m 349 1171 l 349 1171 q 376 1238 349 1211 q 444 1265 404 1265 l 444 1265 q 511 1238 485 1265 q 538 1171 538 1211 l 538 1171 q 511 1104 538 1131 q 444 1078 485 1078 l 444 1078 q 376 1104 404 1078 q 349 1171 349 1131 z m 632 1171 l 632 1171 q 659 1238 632 1211 q 726 1265 686 1265 l 726 1265 q 794 1238 767 1265 q 821 1171 821 1211 l 821 1171 q 794 1104 821 1131 q 726 1078 767 1078 l 726 1078 q 659 1104 686 1078 q 632 1171 632 1131 z "},"Ù":{"ha":1094,"x_min":111,"x_max":983,"o":"m 547 -18 l 547 -18 q 368 13 449 -18 q 231 99 288 43 q 142 233 174 154 q 111 410 111 313 l 111 410 l 111 1015 l 306 1015 l 306 410 q 331 283 306 333 q 392 204 356 233 q 472 164 429 175 q 547 153 514 153 l 547 153 q 623 164 581 153 q 702 204 665 175 q 764 283 739 233 q 789 410 789 333 l 789 410 l 789 1015 l 983 1015 l 983 410 q 953 233 983 313 q 865 99 922 154 q 728 13 808 43 q 547 -18 647 -18 z m 490 1275 l 653 1065 l 517 1065 l 331 1206 l 490 1275 z "},"Ú":{"ha":1094,"x_min":111,"x_max":983,"o":"m 547 -18 l 547 -18 q 368 13 449 -18 q 231 99 288 43 q 142 233 174 154 q 111 410 111 313 l 111 410 l 111 1015 l 306 1015 l 306 410 q 331 283 306 333 q 392 204 356 233 q 472 164 429 175 q 547 153 514 153 l 547 153 q 623 164 581 153 q 702 204 665 175 q 764 283 739 233 q 789 410 789 333 l 789 410 l 789 1015 l 983 1015 l 983 410 q 953 233 983 313 q 865 99 922 154 q 728 13 808 43 q 547 -18 647 -18 z m 440 1065 l 603 1275 l 764 1206 l 578 1065 l 440 1065 z "},"Û":{"ha":1094,"x_min":111,"x_max":983,"o":"m 547 -18 l 547 -18 q 368 13 449 -18 q 231 99 288 43 q 142 233 174 154 q 111 410 111 313 l 111 410 l 111 1015 l 306 1015 l 306 410 q 331 283 306 333 q 392 204 356 233 q 472 164 429 175 q 547 153 514 153 l 547 153 q 623 164 581 153 q 702 204 665 175 q 764 283 739 233 q 789 410 789 333 l 789 410 l 789 1015 l 983 1015 l 983 410 q 953 233 983 313 q 865 99 922 154 q 728 13 808 43 q 547 -18 647 -18 z m 296 1061 l 465 1275 l 628 1275 l 799 1063 l 643 1063 l 544 1160 l 451 1061 l 296 1061 z "},"Ü":{"ha":1094,"x_min":111,"x_max":983,"o":"m 547 -18 l 547 -18 q 368 13 449 -18 q 231 99 288 43 q 142 233 174 154 q 111 410 111 313 l 111 410 l 111 1015 l 306 1015 l 306 410 q 331 283 306 333 q 392 204 356 233 q 472 164 429 175 q 547 153 514 153 l 547 153 q 623 164 581 153 q 702 204 665 175 q 764 283 739 233 q 789 410 789 333 l 789 410 l 789 1015 l 983 1015 l 983 410 q 953 233 983 313 q 865 99 922 154 q 728 13 808 43 q 547 -18 647 -18 z m 311 1171 l 311 1171 q 339 1238 311 1211 q 407 1265 367 1265 l 407 1265 q 474 1238 447 1265 q 500 1171 500 1211 l 500 1171 q 474 1104 500 1131 q 407 1078 447 1078 l 407 1078 q 339 1104 367 1078 q 311 1171 311 1131 z m 594 1171 l 594 1171 q 622 1238 594 1211 q 689 1265 649 1265 l 689 1265 q 756 1238 729 1265 q 783 1171 783 1211 l 783 1171 q 756 1104 783 1131 q 689 1078 729 1078 l 689 1078 q 622 1104 649 1078 q 594 1171 594 1131 z "},"Ý":{"ha":985,"x_min":11,"x_max":978,"o":"m 751 1015 l 978 1015 q 888 869 939 951 q 785 702 838 788 q 681 534 732 617 q 590 385 629 451 l 590 385 l 590 0 l 396 0 l 396 385 q 204 700 306 543 q 11 1015 103 857 l 11 1015 l 238 1015 q 365 800 300 911 q 493 585 431 689 l 493 585 q 557 689 524 633 q 624 801 590 744 q 690 912 657 857 q 751 1015 722 967 l 751 1015 z m 358 1065 l 521 1275 l 682 1206 l 496 1065 l 358 1065 z "},"ø":{"ha":1175,"x_min":60,"x_max":1114,"o":"m 294 68 l 206 -32 l 100 60 l 189 161 q 94 320 128 232 q 60 508 60 408 l 60 508 q 101 713 60 617 q 215 881 143 810 q 382 994 286 953 q 586 1036 478 1036 l 586 1036 q 742 1013 668 1036 q 881 946 817 989 l 881 946 l 965 1043 l 1071 950 l 985 853 q 1080 694 1046 782 q 1114 508 1114 607 l 1114 508 q 1072 303 1114 399 q 959 135 1031 207 q 792 22 888 64 q 586 -19 696 -19 l 586 -19 q 431 3 504 -19 q 294 68 357 26 l 294 68 z m 586 854 l 586 854 q 456 826 517 854 q 351 750 396 797 q 279 640 306 703 q 253 508 253 576 l 253 508 q 269 401 253 453 q 317 307 286 350 l 317 307 l 756 804 q 586 854 678 854 z m 586 161 l 586 161 q 716 190 656 161 q 822 266 776 218 q 893 376 867 314 q 919 508 919 439 l 919 508 q 903 613 919 563 q 857 707 886 664 l 857 707 l 418 210 q 498 174 456 186 q 586 161 540 161 z "},"ž":{"ha":975,"x_min":29,"x_max":938,"o":"m 938 1015 l 938 992 l 371 181 l 918 181 l 918 0 l 29 0 l 29 22 l 597 836 l 72 836 l 72 1015 l 938 1015 z m 739 1275 l 569 1061 l 407 1061 l 236 1275 l 392 1275 l 490 1178 l 583 1275 l 739 1275 z "},"à":{"ha":1075,"x_min":8,"x_max":1067,"o":"m 8 0 l 219 0 l 297 160 l 776 160 l 856 0 l 1067 0 l 547 1015 l 528 1015 l 8 0 z m 392 329 l 538 636 l 682 329 l 392 329 z m 439 1275 l 601 1065 l 465 1065 l 279 1206 l 439 1275 z "},"á":{"ha":1075,"x_min":8,"x_max":1067,"o":"m 219 0 l 8 0 l 528 1015 l 547 1015 l 1067 0 l 856 0 l 776 160 l 297 160 l 219 0 z m 538 636 l 392 329 l 682 329 l 538 636 z m 472 1065 l 635 1275 l 796 1206 l 610 1065 l 472 1065 z "},"â":{"ha":1075,"x_min":8,"x_max":1067,"o":"m 219 0 l 8 0 l 528 1015 l 547 1015 l 1067 0 l 856 0 l 776 160 l 297 160 l 219 0 z m 286 1061 l 456 1275 l 618 1275 l 789 1063 l 633 1063 l 535 1160 l 442 1061 l 286 1061 z m 538 636 l 392 329 l 682 329 l 538 636 z "},"ã":{"ha":1075,"x_min":8,"x_max":1067,"o":"m 8 0 l 219 0 l 297 160 l 776 160 l 856 0 l 1067 0 l 547 1015 l 528 1015 l 8 0 z m 635 1054 l 635 1054 l 629 1054 q 548 1077 578 1057 q 497 1117 518 1097 l 497 1117 q 470 1139 482 1132 q 436 1146 458 1146 l 436 1146 q 410 1134 421 1146 q 391 1108 399 1122 q 378 1081 383 1093 q 374 1069 374 1069 l 374 1069 l 260 1101 q 278 1153 265 1124 q 313 1208 292 1182 q 365 1251 335 1233 q 433 1269 394 1268 l 433 1269 q 523 1249 490 1271 q 576 1208 556 1228 l 576 1208 q 603 1187 592 1193 q 633 1179 614 1181 l 633 1179 q 663 1188 650 1178 q 683 1210 675 1199 l 683 1210 q 701 1242 693 1224 l 701 1242 l 814 1201 q 797 1164 808 1186 q 767 1119 786 1142 l 767 1119 q 706 1071 739 1088 q 635 1054 672 1054 z m 392 329 l 538 636 l 682 329 l 392 329 z "},"ä":{"ha":1075,"x_min":8,"x_max":1067,"o":"m 8 0 l 219 0 l 297 160 l 776 160 l 856 0 l 1067 0 l 547 1015 l 528 1015 l 8 0 z m 392 329 l 538 636 l 682 329 l 392 329 z m 301 1157 l 301 1157 q 329 1224 301 1197 q 397 1251 357 1251 l 397 1251 q 464 1224 438 1251 q 490 1157 490 1197 l 490 1157 q 464 1090 490 1117 q 397 1064 438 1064 l 397 1064 q 329 1090 357 1064 q 301 1157 301 1117 z m 585 1157 l 585 1157 q 612 1224 585 1197 q 679 1251 639 1251 l 679 1251 q 747 1224 719 1251 q 774 1157 774 1197 l 774 1157 q 747 1090 774 1117 q 679 1064 719 1064 l 679 1064 q 612 1090 639 1064 q 585 1157 585 1117 z "},"å":{"ha":1075,"x_min":8,"x_max":1067,"o":"m 219 0 l 8 0 l 506 971 q 421 1023 454 982 q 388 1118 388 1064 l 388 1118 q 399 1176 388 1149 q 431 1223 411 1203 q 478 1255 451 1243 q 538 1267 506 1267 l 538 1267 q 595 1255 568 1267 q 642 1223 622 1243 q 674 1176 663 1203 q 686 1118 686 1149 l 686 1118 q 653 1023 686 1064 q 569 971 619 982 l 569 971 l 1067 0 l 856 0 l 776 160 l 297 160 l 219 0 z m 538 636 l 392 329 l 682 329 l 538 636 z m 538 1174 l 538 1174 q 497 1158 514 1174 q 481 1118 481 1142 l 481 1118 q 497 1078 481 1094 q 538 1061 514 1061 l 538 1061 q 577 1078 561 1061 q 593 1118 593 1094 l 593 1118 q 577 1158 593 1142 q 538 1174 561 1174 z "},"è":{"ha":949,"x_min":111,"x_max":858,"o":"m 304 844 l 858 844 l 858 1017 l 111 1017 l 111 0 l 858 0 l 858 175 l 304 175 l 304 414 l 796 414 l 796 590 l 304 590 l 304 844 z m 444 1275 l 607 1065 l 471 1065 l 285 1206 l 444 1275 z "},"é":{"ha":949,"x_min":111,"x_max":858,"o":"m 858 844 l 304 844 l 304 590 l 796 590 l 796 414 l 304 414 l 304 175 l 858 175 l 858 0 l 111 0 l 111 1017 l 858 1017 l 858 844 z m 354 1065 l 517 1275 l 678 1206 l 492 1065 l 354 1065 z "},"ê":{"ha":949,"x_min":111,"x_max":858,"o":"m 858 844 l 304 844 l 304 590 l 796 590 l 796 414 l 304 414 l 304 175 l 858 175 l 858 0 l 111 0 l 111 1017 l 858 1017 l 858 844 z m 238 1061 l 407 1275 l 569 1275 l 740 1063 l 585 1063 l 486 1160 l 393 1061 l 238 1061 z "},"ë":{"ha":949,"x_min":111,"x_max":858,"o":"m 304 844 l 858 844 l 858 1017 l 111 1017 l 111 0 l 858 0 l 858 175 l 304 175 l 304 414 l 796 414 l 796 590 l 304 590 l 304 844 z m 251 1171 l 251 1171 q 279 1238 251 1211 q 347 1265 307 1265 l 347 1265 q 414 1238 388 1265 q 440 1171 440 1211 l 440 1171 q 414 1104 440 1131 q 347 1078 388 1078 l 347 1078 q 279 1104 307 1078 q 251 1171 251 1131 z m 535 1171 l 535 1171 q 562 1238 535 1211 q 629 1265 589 1265 l 629 1265 q 697 1238 669 1265 q 724 1171 724 1211 l 724 1171 q 697 1104 724 1131 q 629 1078 669 1078 l 629 1078 q 562 1104 589 1078 q 535 1171 535 1131 z "},"ì":{"ha":472,"x_min":8,"x_max":333,"o":"m 333 1015 l 333 0 l 139 0 l 139 1015 l 333 1015 z m 168 1275 l 331 1065 l 194 1065 l 8 1206 l 168 1275 z "},"í":{"ha":472,"x_min":139,"x_max":463,"o":"m 333 1015 l 333 0 l 139 0 l 139 1015 l 333 1015 z m 139 1065 l 301 1275 l 463 1206 l 276 1065 l 139 1065 z "},"î":{"ha":472,"x_min":-15,"x_max":488,"o":"m 333 1015 l 333 0 l 139 0 l 139 1015 l 333 1015 z m -15 1061 l 154 1275 l 317 1275 l 488 1063 l 332 1063 l 233 1160 l 140 1061 l -15 1061 z "},"ï":{"ha":472,"x_min":0,"x_max":472,"o":"m 333 1015 l 333 0 l 139 0 l 139 1015 l 333 1015 z m 283 1171 l 283 1171 q 310 1238 283 1211 q 378 1265 338 1265 l 378 1265 q 445 1238 418 1265 q 472 1171 472 1211 l 472 1171 q 445 1104 472 1131 q 378 1078 418 1078 l 378 1078 q 310 1104 338 1078 q 283 1171 283 1131 z m 0 1171 l 0 1171 q 28 1238 0 1211 q 96 1265 56 1265 l 96 1265 q 163 1238 136 1265 q 189 1171 189 1211 l 189 1171 q 163 1104 189 1131 q 96 1078 136 1078 l 96 1078 q 28 1104 56 1078 q 0 1171 0 1131 z "},"ñ":{"ha":1106,"x_min":111,"x_max":994,"o":"m 974 0 l 994 0 l 994 1015 l 800 1015 l 800 401 l 132 1015 l 111 1015 l 111 0 l 304 0 l 304 604 l 974 0 z m 636 1054 l 636 1054 l 631 1054 q 549 1077 579 1057 q 499 1117 519 1097 l 499 1117 q 472 1139 483 1132 q 438 1146 460 1146 l 438 1146 q 411 1134 422 1146 q 392 1108 400 1122 q 380 1081 385 1093 q 375 1069 375 1069 l 375 1069 l 261 1101 q 280 1153 267 1124 q 315 1208 293 1182 q 366 1251 336 1233 q 435 1269 396 1268 l 435 1269 q 524 1249 492 1271 q 578 1208 557 1228 l 578 1208 q 604 1187 593 1193 q 635 1179 615 1181 l 635 1179 q 664 1188 651 1178 q 685 1210 676 1199 l 685 1210 q 703 1242 694 1224 l 703 1242 l 815 1201 q 799 1164 810 1186 q 768 1119 788 1142 l 768 1119 q 707 1071 740 1088 q 636 1054 674 1054 z "},"ò":{"ha":1175,"x_min":60,"x_max":1114,"o":"m 586 -19 l 586 -19 q 382 22 478 -19 q 215 135 286 64 q 101 303 143 207 q 60 508 60 399 l 60 508 q 101 713 60 617 q 215 881 143 810 q 382 994 286 953 q 586 1036 478 1036 l 586 1036 q 792 994 696 1036 q 959 881 888 953 q 1072 713 1031 810 q 1114 508 1114 617 l 1114 508 q 1072 303 1114 399 q 959 135 1031 207 q 792 22 888 64 q 586 -19 696 -19 z m 586 854 l 586 854 q 456 826 517 854 q 351 750 396 797 q 279 640 306 703 q 253 508 253 576 l 253 508 q 279 376 253 439 q 351 266 306 314 q 456 190 396 218 q 586 161 517 161 l 586 161 q 716 190 656 161 q 822 266 776 218 q 893 376 867 314 q 919 508 919 439 l 919 508 q 893 640 919 576 q 822 750 867 703 q 716 826 776 797 q 586 854 656 854 z m 531 1275 l 693 1065 l 557 1065 l 371 1206 l 531 1275 z "},"ó":{"ha":1175,"x_min":60,"x_max":1114,"o":"m 586 -19 l 586 -19 q 382 22 478 -19 q 215 135 286 64 q 101 303 143 207 q 60 508 60 399 l 60 508 q 101 713 60 617 q 215 881 143 810 q 382 994 286 953 q 586 1036 478 1036 l 586 1036 q 792 994 696 1036 q 959 881 888 953 q 1072 713 1031 810 q 1114 508 1114 617 l 1114 508 q 1072 303 1114 399 q 959 135 1031 207 q 792 22 888 64 q 586 -19 696 -19 z m 586 854 l 586 854 q 456 826 517 854 q 351 750 396 797 q 279 640 306 703 q 253 508 253 576 l 253 508 q 279 376 253 439 q 351 266 306 314 q 456 190 396 218 q 586 161 517 161 l 586 161 q 716 190 656 161 q 822 266 776 218 q 893 376 867 314 q 919 508 919 439 l 919 508 q 893 640 919 576 q 822 750 867 703 q 716 826 776 797 q 586 854 656 854 z m 467 1065 l 629 1275 l 790 1206 l 604 1065 l 467 1065 z "},"ô":{"ha":1175,"x_min":60,"x_max":1114,"o":"m 586 -19 l 586 -19 q 382 22 478 -19 q 215 135 286 64 q 101 303 143 207 q 60 508 60 399 l 60 508 q 101 713 60 617 q 215 881 143 810 q 382 994 286 953 q 586 1036 478 1036 l 586 1036 q 792 994 696 1036 q 959 881 888 953 q 1072 713 1031 810 q 1114 508 1114 617 l 1114 508 q 1072 303 1114 399 q 959 135 1031 207 q 792 22 888 64 q 586 -19 696 -19 z m 586 854 l 586 854 q 456 826 517 854 q 351 750 396 797 q 279 640 306 703 q 253 508 253 576 l 253 508 q 279 376 253 439 q 351 266 306 314 q 456 190 396 218 q 586 161 517 161 l 586 161 q 716 190 656 161 q 822 266 776 218 q 893 376 867 314 q 919 508 919 439 l 919 508 q 893 640 919 576 q 822 750 867 703 q 716 826 776 797 q 586 854 656 854 z m 338 1061 l 507 1275 l 669 1275 l 840 1063 l 685 1063 l 586 1160 l 493 1061 l 338 1061 z "},"õ":{"ha":1175,"x_min":60,"x_max":1114,"o":"m 586 -19 l 586 -19 q 382 22 478 -19 q 215 135 286 64 q 101 303 143 207 q 60 508 60 399 l 60 508 q 101 713 60 617 q 215 881 143 810 q 382 994 286 953 q 586 1036 478 1036 l 586 1036 q 792 994 696 1036 q 959 881 888 953 q 1072 713 1031 810 q 1114 508 1114 617 l 1114 508 q 1072 303 1114 399 q 959 135 1031 207 q 792 22 888 64 q 586 -19 696 -19 z m 586 854 l 586 854 q 456 826 517 854 q 351 750 396 797 q 279 640 306 703 q 253 508 253 576 l 253 508 q 279 376 253 439 q 351 266 306 314 q 456 190 396 218 q 586 161 517 161 l 586 161 q 716 190 656 161 q 822 266 776 218 q 893 376 867 314 q 919 508 919 439 l 919 508 q 893 640 919 576 q 822 750 867 703 q 716 826 776 797 q 586 854 656 854 z m 685 1054 l 685 1054 l 679 1054 q 598 1077 628 1057 q 547 1117 568 1097 l 547 1117 q 520 1139 532 1132 q 486 1146 508 1146 l 486 1146 q 460 1134 471 1146 q 441 1108 449 1122 q 428 1081 433 1093 q 424 1069 424 1069 l 424 1069 l 310 1101 q 328 1153 315 1124 q 363 1208 342 1182 q 415 1251 385 1233 q 483 1269 444 1268 l 483 1269 q 573 1249 540 1271 q 626 1208 606 1228 l 626 1208 q 653 1187 642 1193 q 683 1179 664 1181 l 683 1179 q 713 1188 700 1178 q 733 1210 725 1199 l 733 1210 q 751 1242 743 1224 l 751 1242 l 864 1201 q 847 1164 858 1186 q 817 1119 836 1142 l 817 1119 q 756 1071 789 1088 q 685 1054 722 1054 z "},"ö":{"ha":1175,"x_min":60,"x_max":1114,"o":"m 586 -19 l 586 -19 q 382 22 478 -19 q 215 135 286 64 q 101 303 143 207 q 60 508 60 399 l 60 508 q 101 713 60 617 q 215 881 143 810 q 382 994 286 953 q 586 1036 478 1036 l 586 1036 q 792 994 696 1036 q 959 881 888 953 q 1072 713 1031 810 q 1114 508 1114 617 l 1114 508 q 1072 303 1114 399 q 959 135 1031 207 q 792 22 888 64 q 586 -19 696 -19 z m 586 854 l 586 854 q 456 826 517 854 q 351 750 396 797 q 279 640 306 703 q 253 508 253 576 l 253 508 q 279 376 253 439 q 351 266 306 314 q 456 190 396 218 q 586 161 517 161 l 586 161 q 716 190 656 161 q 822 266 776 218 q 893 376 867 314 q 919 508 919 439 l 919 508 q 893 640 919 576 q 822 750 867 703 q 716 826 776 797 q 586 854 656 854 z m 349 1171 l 349 1171 q 376 1238 349 1211 q 444 1265 404 1265 l 444 1265 q 511 1238 485 1265 q 538 1171 538 1211 l 538 1171 q 511 1104 538 1131 q 444 1078 485 1078 l 444 1078 q 376 1104 404 1078 q 349 1171 349 1131 z m 632 1171 l 632 1171 q 659 1238 632 1211 q 726 1265 686 1265 l 726 1265 q 794 1238 767 1265 q 821 1171 821 1211 l 821 1171 q 794 1104 821 1131 q 726 1078 767 1078 l 726 1078 q 659 1104 686 1078 q 632 1171 632 1131 z "},"ù":{"ha":1094,"x_min":111,"x_max":983,"o":"m 547 -18 l 547 -18 q 368 13 449 -18 q 231 99 288 43 q 142 233 174 154 q 111 410 111 313 l 111 410 l 111 1015 l 306 1015 l 306 410 q 331 283 306 333 q 392 204 356 233 q 472 164 429 175 q 547 153 514 153 l 547 153 q 623 164 581 153 q 702 204 665 175 q 764 283 739 233 q 789 410 789 333 l 789 410 l 789 1015 l 983 1015 l 983 410 q 953 233 983 313 q 865 99 922 154 q 728 13 808 43 q 547 -18 647 -18 z m 490 1275 l 653 1065 l 517 1065 l 331 1206 l 490 1275 z "},"ú":{"ha":1094,"x_min":111,"x_max":983,"o":"m 547 -18 l 547 -18 q 368 13 449 -18 q 231 99 288 43 q 142 233 174 154 q 111 410 111 313 l 111 410 l 111 1015 l 306 1015 l 306 410 q 331 283 306 333 q 392 204 356 233 q 472 164 429 175 q 547 153 514 153 l 547 153 q 623 164 581 153 q 702 204 665 175 q 764 283 739 233 q 789 410 789 333 l 789 410 l 789 1015 l 983 1015 l 983 410 q 953 233 983 313 q 865 99 922 154 q 728 13 808 43 q 547 -18 647 -18 z m 440 1065 l 603 1275 l 764 1206 l 578 1065 l 440 1065 z "},"û":{"ha":1094,"x_min":111,"x_max":983,"o":"m 547 -18 l 547 -18 q 368 13 449 -18 q 231 99 288 43 q 142 233 174 154 q 111 410 111 313 l 111 410 l 111 1015 l 306 1015 l 306 410 q 331 283 306 333 q 392 204 356 233 q 472 164 429 175 q 547 153 514 153 l 547 153 q 623 164 581 153 q 702 204 665 175 q 764 283 739 233 q 789 410 789 333 l 789 410 l 789 1015 l 983 1015 l 983 410 q 953 233 983 313 q 865 99 922 154 q 728 13 808 43 q 547 -18 647 -18 z m 296 1061 l 465 1275 l 628 1275 l 799 1063 l 643 1063 l 544 1160 l 451 1061 l 296 1061 z "},"ü":{"ha":1094,"x_min":111,"x_max":983,"o":"m 547 -18 l 547 -18 q 368 13 449 -18 q 231 99 288 43 q 142 233 174 154 q 111 410 111 313 l 111 410 l 111 1015 l 306 1015 l 306 410 q 331 283 306 333 q 392 204 356 233 q 472 164 429 175 q 547 153 514 153 l 547 153 q 623 164 581 153 q 702 204 665 175 q 764 283 739 233 q 789 410 789 333 l 789 410 l 789 1015 l 983 1015 l 983 410 q 953 233 983 313 q 865 99 922 154 q 728 13 808 43 q 547 -18 647 -18 z m 311 1171 l 311 1171 q 339 1238 311 1211 q 407 1265 367 1265 l 407 1265 q 474 1238 447 1265 q 500 1171 500 1211 l 500 1171 q 474 1104 500 1131 q 407 1078 447 1078 l 407 1078 q 339 1104 367 1078 q 311 1171 311 1131 z m 594 1171 l 594 1171 q 622 1238 594 1211 q 689 1265 649 1265 l 689 1265 q 756 1238 729 1265 q 783 1171 783 1211 l 783 1171 q 756 1104 783 1131 q 689 1078 729 1078 l 689 1078 q 622 1104 649 1078 q 594 1171 594 1131 z "},"ý":{"ha":985,"x_min":11,"x_max":978,"o":"m 751 1015 l 978 1015 q 888 869 939 951 q 785 702 838 788 q 681 534 732 617 q 590 385 629 451 l 590 385 l 590 0 l 396 0 l 396 385 q 204 700 306 543 q 11 1015 103 857 l 11 1015 l 238 1015 q 365 800 300 911 q 493 585 431 689 l 493 585 q 557 689 524 633 q 624 801 590 744 q 690 912 657 857 q 751 1015 722 967 l 751 1015 z m 358 1065 l 521 1275 l 682 1206 l 496 1065 l 358 1065 z "},"ÿ":{"ha":985,"x_min":11,"x_max":978,"o":"m 978 1015 l 751 1015 q 690 912 722 967 q 624 801 657 857 q 557 689 590 744 q 493 585 524 633 l 493 585 q 365 800 431 689 q 238 1015 300 911 l 238 1015 l 11 1015 q 204 700 103 857 q 396 385 306 543 l 396 385 l 396 0 l 590 0 l 590 385 q 681 534 629 451 q 785 702 732 617 q 888 869 838 788 q 978 1015 939 951 l 978 1015 z m 258 1171 l 258 1171 q 286 1238 258 1211 q 354 1265 314 1265 l 354 1265 q 421 1238 394 1265 q 447 1171 447 1211 l 447 1171 q 421 1104 447 1131 q 354 1078 394 1078 l 354 1078 q 286 1104 314 1078 q 258 1171 258 1131 z m 542 1171 l 542 1171 q 569 1238 542 1211 q 636 1265 596 1265 l 636 1265 q 703 1238 676 1265 q 731 1171 731 1211 l 731 1171 q 703 1104 731 1131 q 636 1078 676 1078 l 636 1078 q 569 1104 596 1078 q 542 1171 542 1131 z "},"ç":{"ha":1081,"x_min":56,"x_max":1042,"o":"m 651 -65 l 651 -65 q 722 -176 728 -92 l 722 -176 q 701 -242 719 -219 q 658 -276 682 -265 q 613 -290 635 -287 q 581 -292 590 -292 l 581 -292 q 531 -285 551 -292 q 494 -272 510 -279 l 494 -272 q 465 -253 478 -264 l 465 -253 l 500 -185 q 517 -196 506 -190 l 517 -196 q 542 -204 526 -200 q 581 -207 557 -208 l 581 -207 q 610 -197 597 -207 q 624 -168 624 -187 l 624 -168 q 608 -143 624 -149 q 578 -137 592 -137 l 578 -137 q 549 -142 563 -139 q 526 -147 536 -144 l 526 -147 q 506 -156 515 -151 l 506 -156 l 486 -124 l 528 -17 q 342 38 428 -7 q 192 153 256 83 q 92 314 129 224 q 56 507 56 404 l 56 507 q 97 711 56 615 q 210 878 139 807 q 378 992 282 950 q 582 1033 474 1033 l 582 1033 q 724 1014 656 1033 q 852 959 793 994 q 960 874 911 924 q 1042 765 1008 825 l 1042 765 l 860 692 q 808 754 838 725 q 742 806 778 783 q 665 840 706 828 q 582 853 625 853 l 582 853 q 452 824 513 853 q 347 749 392 796 q 276 638 303 701 q 250 507 250 575 l 250 507 q 276 375 250 438 q 347 265 303 313 q 452 190 392 218 q 582 161 513 161 l 582 161 q 665 174 625 161 q 742 208 706 186 q 808 260 778 231 q 860 324 838 290 l 860 324 l 1042 250 q 965 146 1010 193 q 866 64 921 99 q 747 8 811 29 q 615 -18 683 -14 l 615 -18 l 596 -61 q 616 -59 600 -60 q 651 -65 632 -58 z "},"š":{"ha":944,"x_min":71,"x_max":893,"o":"m 71 133 l 71 133 l 176 289 q 334 198 253 236 q 504 160 415 160 l 504 160 q 588 172 551 160 q 649 202 624 183 q 686 245 674 221 q 699 293 699 269 l 699 293 q 680 345 699 324 q 630 381 661 367 q 556 404 599 394 q 468 422 514 414 l 468 422 q 397 435 438 428 q 314 456 357 443 q 229 491 271 469 q 154 545 188 513 q 101 623 121 578 q 81 729 81 668 l 81 729 q 117 877 81 818 q 209 970 153 936 q 334 1018 265 1004 q 467 1032 403 1032 l 467 1032 q 581 1024 531 1032 q 674 999 631 1015 q 758 959 717 983 q 846 901 799 935 l 846 901 l 738 749 q 599 825 665 799 q 458 851 532 851 l 458 851 q 401 845 433 851 q 341 825 369 839 q 294 790 313 811 q 275 738 275 768 l 275 738 q 297 686 275 707 q 354 651 319 665 q 431 628 389 638 q 511 608 472 618 l 511 608 q 580 594 540 601 q 662 575 619 588 q 746 542 704 563 q 820 488 788 521 q 873 408 853 456 q 893 292 893 360 l 893 292 q 865 154 893 213 q 786 58 838 96 q 664 0 735 19 q 507 -19 593 -19 l 507 -19 q 367 -8 428 -19 q 257 24 307 4 q 163 72 207 44 q 71 133 118 100 z m 724 1275 l 554 1061 l 392 1061 l 221 1275 l 376 1275 l 475 1178 l 568 1275 l 724 1275 z "},"Þ":{"ha":988,"x_min":111,"x_max":925,"o":"m 306 869 l 564 869 q 704 841 639 869 q 819 763 769 813 q 897 649 868 714 q 925 508 925 583 l 925 508 q 897 368 925 433 q 819 253 868 303 q 704 176 769 204 q 564 147 639 147 l 564 147 l 306 147 l 306 0 l 111 0 l 111 1017 l 306 1017 l 306 869 z m 306 321 l 564 321 q 628 338 599 321 q 681 381 658 354 q 717 440 704 407 q 731 508 731 474 l 731 508 q 717 576 731 543 q 681 636 704 610 q 628 679 658 663 q 564 696 599 696 l 564 696 l 306 696 l 306 321 z "},"þ":{"ha":988,"x_min":111,"x_max":925,"o":"m 306 869 l 564 869 q 704 841 639 869 q 819 763 769 813 q 897 649 868 714 q 925 508 925 583 l 925 508 q 897 368 925 433 q 819 253 868 303 q 704 176 769 204 q 564 147 639 147 l 564 147 l 306 147 l 306 0 l 111 0 l 111 1017 l 306 1017 l 306 869 z m 306 321 l 564 321 q 628 338 599 321 q 681 381 658 354 q 717 440 704 407 q 731 508 731 474 l 731 508 q 717 576 731 543 q 681 636 704 610 q 628 679 658 663 q 564 696 599 696 l 564 696 l 306 696 l 306 321 z "},"Ð":{"ha":1133,"x_min":40,"x_max":1064,"o":"m 554 0 l 554 0 l 153 0 l 153 418 l 40 418 l 40 589 l 153 589 l 153 1017 l 554 1017 q 913 889 772 1017 l 913 889 q 1026 724 988 821 q 1064 508 1064 628 l 1064 508 q 1026 291 1064 388 q 913 126 988 194 l 913 126 q 753 32 844 64 q 554 0 663 0 z m 522 589 l 522 418 l 347 418 l 347 172 l 554 172 q 664 185 608 172 q 765 234 719 197 q 839 336 810 271 q 868 507 868 401 l 868 507 q 839 678 868 613 q 764 781 810 744 q 663 829 718 817 q 554 842 607 842 l 554 842 l 347 842 l 347 589 l 522 589 z "},"ð":{"ha":1133,"x_min":40,"x_max":1064,"o":"m 554 0 l 554 0 l 153 0 l 153 418 l 40 418 l 40 589 l 153 589 l 153 1017 l 554 1017 q 913 889 772 1017 l 913 889 q 1026 724 988 821 q 1064 508 1064 628 l 1064 508 q 1026 291 1064 388 q 913 126 988 194 l 913 126 q 753 32 844 64 q 554 0 663 0 z m 522 589 l 522 418 l 347 418 l 347 172 l 554 172 q 664 185 608 172 q 765 234 719 197 q 839 336 810 271 q 868 507 868 401 l 868 507 q 839 678 868 613 q 764 781 810 744 q 663 829 718 817 q 554 842 607 842 l 554 842 l 347 842 l 347 589 l 522 589 z "},"ı":{"ha":472,"x_min":139,"x_max":333,"o":"m 333 1015 l 333 0 l 139 0 l 139 1015 l 333 1015 z "},"Ł":{"ha":915,"x_min":42,"x_max":899,"o":"m 42 449 l 167 518 l 167 1017 l 361 1017 l 361 628 l 671 803 l 671 613 l 361 438 l 361 172 l 899 172 l 899 0 l 167 0 l 167 328 l 42 258 l 42 449 z "},"ł":{"ha":915,"x_min":42,"x_max":899,"o":"m 42 449 l 167 518 l 167 1017 l 361 1017 l 361 628 l 671 803 l 671 613 l 361 438 l 361 172 l 899 172 l 899 0 l 167 0 l 167 328 l 42 258 l 42 449 z "},"B":{"ha":965,"x_min":111,"x_max":897,"o":"m 856 735 l 856 735 q 843 669 856 704 q 809 606 831 635 q 757 556 788 576 q 690 535 726 536 l 690 535 q 765 513 728 532 q 831 463 801 494 q 878 389 860 431 q 897 300 897 347 l 897 300 q 872 159 897 217 q 804 66 847 101 q 703 15 761 31 q 581 0 646 0 l 581 0 l 111 0 l 111 1017 l 558 1017 q 674 1005 619 1017 q 768 962 728 993 q 832 876 808 931 q 856 735 856 821 z m 306 172 l 581 172 q 628 184 606 172 q 667 216 650 196 q 693 260 683 236 q 703 310 703 285 l 703 310 q 665 396 703 361 q 560 431 626 431 l 560 431 l 306 431 l 306 172 z m 306 844 l 306 604 l 544 604 q 595 615 574 604 q 631 644 617 626 q 653 685 646 663 q 661 731 661 708 l 661 731 q 653 774 661 753 q 631 810 644 794 q 598 835 617 825 q 558 844 579 844 l 558 844 l 306 844 z "},"C":{"ha":1081,"x_min":56,"x_max":1042,"o":"m 860 324 l 1042 250 q 960 140 1008 189 q 852 55 911 90 q 724 0 793 19 q 582 -19 656 -19 l 582 -19 q 378 22 474 -19 q 210 135 282 64 q 97 303 139 207 q 56 507 56 399 l 56 507 q 97 711 56 615 q 210 878 139 807 q 378 992 282 950 q 582 1033 474 1033 l 582 1033 q 724 1014 656 1033 q 852 959 793 994 q 960 874 911 924 q 1042 765 1008 825 l 1042 765 l 860 692 q 808 754 838 725 q 742 806 778 783 q 665 840 706 828 q 582 853 625 853 l 582 853 q 452 824 513 853 q 347 749 392 796 q 276 638 303 701 q 250 507 250 575 l 250 507 q 276 375 250 438 q 347 265 303 313 q 452 190 392 218 q 582 161 513 161 l 582 161 q 665 174 625 161 q 742 208 706 186 q 808 260 778 231 q 860 324 838 290 l 860 324 z "}}}
